<?xml version="1.0" encoding="utf-8"?>
<!-- Generator: Adobe Illustrator 22.0.1, SVG Export Plug-In . SVG Version: 6.00 Build 0)  -->
<svg version="1.1" id="Warstwa_1" xmlns="http://www.w3.org/2000/svg" xmlns:xlink="http://www.w3.org/1999/xlink" x="0px" y="0px"
	 viewBox="0 0 1366 768" style="enable-background:new 0 0 1366 768;" xml:space="preserve">
<style type="text/css">
	.st0{fill:url(#SVGID_1_);}
	.st1{fill:#EDEEF8;}
	.st2{opacity:0.71;clip-path:url(#SVGID_3_);}
	.st3{opacity:6.000000e-02;clip-path:url(#SVGID_5_);}
	.st4{clip-path:url(#SVGID_7_);}
	.st5{clip-path:url(#SVGID_3_);}
	.st6{clip-path:url(#SVGID_9_);fill:url(#SVGID_10_);}
	.st7{fill:#F70000;}
	.st8{fill:#FF7F00;}
	.st9{fill:#FFEC00;}
	.st10{fill:#1EFC06;}
	.st11{fill:#03FFAB;}
	.st12{fill:#03FCFC;}
	.st13{fill:#001FFF;}
	.st14{fill:#CD00FF;}
	.st15{fill:#930D90;}
	.st16{fill:#4E1466;}
	.st17{fill:#590844;}
</style>
<g>
	<g>
		<g>
			
				<image style="overflow:visible;opacity:0.35;enable-background:new    ;" width="663" height="332" xlink:href="4BD7C4E8.png"  transform="matrix(0.997 0 0 0.997 351 239)">
			</image>
			<g>
				<g>
					
						<linearGradient id="SVGID_1_" gradientUnits="userSpaceOnUse" x1="1215.2133" y1="366.8342" x2="1851.0132" y2="366.8342" gradientTransform="matrix(-1 0 0 -1 2213.3804 770)">
						<stop  offset="0" style="stop-color:#F0F1EE"/>
						<stop  offset="0.1" style="stop-color:#F3F4F2"/>
						<stop  offset="0.5006" style="stop-color:#FCFCFC"/>
						<stop  offset="1" style="stop-color:#FFFFFF"/>
					</linearGradient>
					<path class="st0" d="M362.4,555.5h560.7l75.1-77.8V250.9H362.4V555.5z M971.3,292c-7,0-12.6-5.6-12.6-12.6s5.6-12.6,12.6-12.6
						s12.6,5.6,12.6,12.6C983.9,286.4,978.3,292,971.3,292z M926.5,292c-7,0-12.6-5.6-12.6-12.6s5.7-12.6,12.6-12.6
						c7,0,12.6,5.6,12.6,12.6C939.1,286.4,933.5,292,926.5,292z M881.8,292c-7,0-12.6-5.6-12.6-12.6s5.6-12.6,12.6-12.6
						s12.6,5.6,12.6,12.6C894.4,286.4,888.7,292,881.8,292z M837,292c-7,0-12.6-5.6-12.6-12.6s5.7-12.6,12.6-12.6
						c7,0,12.6,5.6,12.6,12.6C849.6,286.4,844,292,837,292z M792.2,292c-7,0-12.6-5.6-12.6-12.6s5.6-12.6,12.6-12.6
						s12.6,5.6,12.6,12.6C804.8,286.4,799.2,292,792.2,292z M747.4,292c-7,0-12.6-5.6-12.6-12.6s5.7-12.6,12.6-12.6
						c7,0,12.6,5.6,12.6,12.6C760.1,286.4,754.4,292,747.4,292z M702.7,292c-7,0-12.6-5.6-12.6-12.6s5.6-12.6,12.6-12.6
						s12.6,5.6,12.6,12.6C715.3,286.4,709.6,292,702.7,292z M657.9,292c-7,0-12.6-5.6-12.6-12.6s5.6-12.6,12.6-12.6
						s12.6,5.6,12.6,12.6C670.5,286.4,664.9,292,657.9,292z M613.1,292c-7,0-12.6-5.6-12.6-12.6s5.6-12.6,12.6-12.6
						s12.6,5.6,12.6,12.6C625.8,286.4,620.1,292,613.1,292z M568.4,292c-7,0-12.6-5.6-12.6-12.6s5.6-12.6,12.6-12.6
						s12.6,5.6,12.6,12.6C581,286.4,575.3,292,568.4,292z M523.6,292c-7,0-12.6-5.6-12.6-12.6s5.6-12.6,12.6-12.6
						s12.6,5.6,12.6,12.6C536.2,286.4,530.6,292,523.6,292z M478.8,292c-7,0-12.6-5.6-12.6-12.6s5.7-12.6,12.6-12.6
						c7,0,12.6,5.6,12.6,12.6C491.4,286.4,485.8,292,478.8,292z M434.1,292c-7,0-12.6-5.6-12.6-12.6s5.6-12.6,12.6-12.6
						s12.6,5.6,12.6,12.6C446.7,286.4,441,292,434.1,292z M389.3,292c-7,0-12.6-5.6-12.6-12.6s5.7-12.6,12.6-12.6
						c7,0,12.6,5.6,12.6,12.6C401.9,286.4,396.3,292,389.3,292z"/>
				</g>
			</g>
		</g>
		<g>
			<polygon class="st1" points="868.8,209.3 868.8,209.2 867.2,208 866.9,207.8 499.1,185.9 499,186 497.3,187 497.3,187.1 
				498.9,188.3 500.5,189.5 498.8,190.5 497,191.5 497,191.6 498.6,192.8 500.3,194.1 498.5,195.1 496.7,196.1 496.7,196.2 
				498.4,197.4 500,198.6 498.2,199.6 496.5,200.6 496.5,200.7 498.1,201.9 499.7,203.2 498,204.2 496.2,205.2 496.2,205.3 
				497.8,206.5 499.5,207.7 497.7,208.7 495.9,209.7 495.9,209.8 497.6,211 499.2,212.3 497.4,213.3 495.7,214.3 495.6,214.4 
				497.3,215.6 498.9,216.8 497.1,217.8 495.4,218.9 495.4,218.9 497,220.2 498.6,221.4 496.9,222.4 495.1,223.4 495.1,223.5 
				496.7,224.7 498.4,225.9 496.6,226.9 494.8,228 494.8,228.1 496.5,229.3 498.1,230.5 496.3,231.5 494.6,232.5 494.6,232.6 
				496.2,233.8 497.8,235 496.1,236.1 494.3,237.1 494.3,237.2 495.9,238.4 497.6,239.6 495.8,240.6 494,241.6 494,241.7 
				495.7,242.9 497.3,244.1 495.5,245.2 493.8,246.2 493.8,246.3 495.4,247.5 497,248.7 495.3,249.7 493.5,250.7 493.5,250.8 
				495.1,252 496.8,253.3 495,254.3 493.2,255.3 493.2,255.4 494.8,256.6 496.5,257.8 494.7,258.8 492.9,259.8 492.9,259.9 
				494.6,261.1 496.2,262.4 494.4,263.4 492.7,264.4 492.7,264.5 494.3,265.7 495.9,266.9 494.2,267.9 492.4,269 492.4,269 
				494,270.3 495.7,271.5 493.9,272.5 492.1,273.5 492.1,273.6 493.8,274.8 495.4,276 493.6,277 491.9,278.1 491.9,278.1 
				493.5,279.4 494.4,280.1 860.9,301.8 861.6,301.4 863.4,300.4 863.4,300.3 861.8,299.1 860.2,297.9 861.9,296.9 863.7,295.9 
				863.7,295.8 862.1,294.6 860.4,293.3 862.2,292.3 864,291.3 864,291.2 862.3,290 860.7,288.8 862.5,287.8 864.2,286.8 
				864.2,286.7 862.6,285.4 861,284.2 862.7,283.2 864.5,282.2 864.5,282.1 862.9,280.9 861.2,279.7 863,278.7 864.8,277.6 
				864.8,277.6 863.1,276.3 861.5,275.1 863.3,274.1 865,273.1 865,273 863.4,271.8 861.8,270.6 863.5,269.6 865.3,268.5 
				865.3,268.4 863.7,267.2 862,266 863.8,265 865.6,264 865.6,263.9 864,262.7 862.3,261.5 864.1,260.4 865.9,259.4 865.9,259.3 
				864.2,258.1 862.6,256.9 864.4,255.9 866.1,254.9 866.1,254.8 864.5,253.6 862.9,252.3 864.6,251.3 866.4,250.3 866.4,250.2 
				864.8,249 863.1,247.8 864.9,246.8 866.7,245.8 866.7,245.7 865,244.5 863.4,243.2 865.2,242.2 866.9,241.2 866.9,241.1 
				865.3,239.9 863.7,238.7 865.4,237.7 867.2,236.7 867.2,236.6 865.6,235.3 863.9,234.1 865.7,233.1 867.5,232.1 867.5,232 
				865.8,230.8 864.2,229.6 866,228.6 867.8,227.5 867.8,227.5 866.1,226.2 864.5,225 866.3,224 868,223 868,222.9 866.4,221.7 
				864.8,220.5 866.5,219.4 868.3,218.4 868.3,218.3 866.7,217.1 865,215.9 866.8,214.9 868.6,213.9 868.6,213.8 866.9,212.6 
				865.3,211.4 867.1,210.3 			"/>
			<g id="Layer_4">
				<g>
					<defs>
						<polygon id="SVGID_2_" points="868.8,209.3 868.8,209.2 867.2,208 866.9,207.8 499.1,185.9 499,186 497.3,187 497.3,187.1 
							498.9,188.3 500.5,189.5 498.8,190.5 497,191.5 497,191.6 498.6,192.8 500.3,194.1 498.5,195.1 496.7,196.1 496.7,196.2 
							498.4,197.4 500,198.6 498.2,199.6 496.5,200.6 496.5,200.7 498.1,201.9 499.7,203.2 498,204.2 496.2,205.2 496.2,205.3 
							497.8,206.5 499.5,207.7 497.7,208.7 495.9,209.7 495.9,209.8 497.6,211 499.2,212.3 497.4,213.3 495.7,214.3 495.6,214.4 
							497.3,215.6 498.9,216.8 497.1,217.8 495.4,218.9 495.4,218.9 497,220.2 498.6,221.4 496.9,222.4 495.1,223.4 495.1,223.5 
							496.7,224.7 498.4,225.9 496.6,226.9 494.8,228 494.8,228.1 496.5,229.3 498.1,230.5 496.3,231.5 494.6,232.5 494.6,232.6 
							496.2,233.8 497.8,235 496.1,236.1 494.3,237.1 494.3,237.2 495.9,238.4 497.6,239.6 495.8,240.6 494,241.6 494,241.7 
							495.7,242.9 497.3,244.1 495.5,245.2 493.8,246.2 493.8,246.3 495.4,247.5 497,248.7 495.3,249.7 493.5,250.7 493.5,250.8 
							495.1,252 496.8,253.3 495,254.3 493.2,255.3 493.2,255.4 494.8,256.6 496.5,257.8 494.7,258.8 492.9,259.8 492.9,259.9 
							494.6,261.1 496.2,262.4 494.4,263.4 492.7,264.4 492.7,264.5 494.3,265.7 495.9,266.9 494.2,267.9 492.4,269 492.4,269 
							494,270.3 495.7,271.5 493.9,272.5 492.1,273.5 492.1,273.6 493.8,274.8 495.4,276 493.6,277 491.9,278.1 491.9,278.1 
							493.5,279.4 494.4,280.1 860.9,301.9 861.7,301.4 863.4,300.4 863.4,300.3 861.8,299.1 860.2,297.9 861.9,296.9 863.7,295.9 
							863.7,295.8 862.1,294.6 860.4,293.3 862.2,292.3 864,291.3 864,291.2 862.3,290 860.7,288.8 862.5,287.8 864.2,286.8 
							864.2,286.7 862.6,285.4 861,284.2 862.7,283.2 864.5,282.2 864.5,282.1 862.9,280.9 861.2,279.7 863,278.7 864.8,277.6 
							864.8,277.6 863.1,276.3 861.5,275.1 863.3,274.1 865,273.1 865,273 863.4,271.8 861.8,270.6 863.5,269.5 865.3,268.5 
							865.3,268.4 863.7,267.2 862,266 863.8,265 865.6,264 865.6,263.9 864,262.7 862.3,261.5 864.1,260.4 865.9,259.4 
							865.9,259.3 864.2,258.1 862.6,256.9 864.4,255.9 866.1,254.9 866.1,254.8 864.5,253.6 862.9,252.3 864.6,251.3 866.4,250.3 
							866.4,250.2 864.8,249 863.1,247.8 864.9,246.8 866.7,245.8 866.7,245.7 865,244.5 863.4,243.2 865.2,242.2 866.9,241.2 
							866.9,241.1 865.3,239.9 863.7,238.7 865.4,237.7 867.2,236.7 867.2,236.6 865.6,235.3 863.9,234.1 865.7,233.1 867.5,232.1 
							867.5,232 865.9,230.8 864.2,229.6 866,228.6 867.8,227.5 867.8,227.5 866.1,226.2 864.5,225 866.3,224 868,223 868,222.9 
							866.4,221.7 864.8,220.5 866.5,219.4 868.3,218.4 868.3,218.3 866.7,217.1 865,215.9 866.8,214.9 868.6,213.9 868.6,213.8 
							866.9,212.6 865.3,211.4 867.1,210.3 						"/>
					</defs>
					<clipPath id="SVGID_3_">
						<use xlink:href="#SVGID_2_"  style="overflow:visible;"/>
					</clipPath>
					<g class="st2">
						<g>
							<g>
								<defs>
									
										<rect id="SVGID_4_" x="561.2" y="77.4" transform="matrix(5.934400e-02 -0.9982 0.9982 5.934400e-02 375.7506 925.8051)" width="235.9" height="372.2"/>
								</defs>
								<clipPath id="SVGID_5_">
									<use xlink:href="#SVGID_4_"  style="overflow:visible;"/>
								</clipPath>
								<g class="st3">
									<g>
										<defs>
											
												<rect id="SVGID_6_" x="560.8" y="77.5" transform="matrix(5.935369e-02 -0.9982 0.9982 5.935369e-02 375.6534 925.8873)" width="236.7" height="372.2"/>
										</defs>
										<clipPath id="SVGID_7_">
											<use xlink:href="#SVGID_6_"  style="overflow:visible;"/>
										</clipPath>
										<g transform="matrix(1 -3.725290e-09 0 1 6.103516e-05 0)" class="st4">
											
												<image style="overflow:visible;enable-background:new    ;" width="400" height="400" xlink:href="4BD7C4E8.jpg"  transform="matrix(-3.523564e-02 0.5926 -0.9289 -5.523184e-02 871.941 156.457)">
											</image>
										</g>
									</g>
								</g>
							</g>
						</g>
					</g>
					<g class="st5">
						<g>
							<defs>
								<path id="SVGID_8_" d="M998.6,339.7c0,0-199.2,7.9-215.2,2.2c0,0,4.2,215.1,2.2,214.7c-2-0.4,139.1-0.7,139.1-0.7
									s77.1-58.5,75-89.6L998.6,339.7z"/>
							</defs>
							<clipPath id="SVGID_9_">
								<use xlink:href="#SVGID_8_"  style="overflow:visible;"/>
							</clipPath>
							
								<linearGradient id="SVGID_10_" gradientUnits="userSpaceOnUse" x1="1194.4407" y1="235.6553" x2="1314.1383" y2="235.6553" gradientTransform="matrix(-0.9986 5.240000e-02 -5.240000e-02 -0.9986 2219.1948 691.1237)">
								<stop  offset="0" style="stop-color:#F2F2F2"/>
								<stop  offset="0.1407" style="stop-color:#ECECED"/>
								<stop  offset="0.5231" style="stop-color:#E3E2E4"/>
								<stop  offset="1" style="stop-color:#E0DFE1"/>
							</linearGradient>
							<path class="st6" d="M996.9,473.4l-48.7,27.3c0,0-13.9,57.8-41.8,63.3c-27.9,5.5,15.2,5.2,15.2,5.2s24.1-2.8,25.5-4.9
								c1.4-2.1,67.1-47.9,67.1-47.9l-10.2-21.1L996.9,473.4z"/>
						</g>
					</g>
				</g>
			</g>
			<g id="Layer_2">
				<g>
					<path class="st7" d="M437.8,390.6l-3.3,3.2c-1.2,1.2-1.8,2.2-1.8,3.2c0,0.5,0.1,1,0.4,1.6c0.3,0.5,0.8,1.2,1.6,2.1l11.6,13.4
						c1,1.2,1.7,2,2.1,2.3c0.4,0.3,1,0.7,1.8,1c1.1,0.5,1.9,1,2.4,1.6s0.7,1.3,0.7,2.3c0,2.2-1.6,3.3-4.7,3.3h-11.8
						c-0.8,0-1.4-0.2-1.9-0.5c-0.5-0.4-1.2-1.2-2.2-2.6c-1.6-2.2-3.7-4.8-6.4-7.6c-1.2-1.2-2-2.1-2.4-2.4c-0.5-0.4-0.9-0.6-1.3-0.6
						c-1.2,0-1.8,1.1-1.8,3.4c0,1.8,0.4,3.1,1.2,3.8c0.1,0.1,0.5,0.3,1,0.7c1.1,0.7,1.7,1.6,1.7,2.7c0,1.4-0.9,2.3-2.7,2.9
						s-4.9,0.9-9.2,0.9c-3.8,0-6.6-0.2-8.4-0.7c-0.7-0.2-1.3-0.6-1.8-1.1s-0.7-1.2-0.7-1.8c0-1.1,0.6-2,1.9-2.8
						c0.6-0.4,1-0.8,1.2-1.2c0.2-0.4,0.5-1.2,0.7-2.2c0.4-2.3,0.6-5.9,0.6-10.8c0-5.8-0.2-9.9-0.7-12.3c-0.2-1-0.4-1.7-0.7-2.1
						c-0.3-0.4-0.8-0.9-1.5-1.3c-1.2-0.7-1.7-1.6-1.7-2.8c0-1,0.4-1.8,1.1-2.4s1.9-1.1,3.5-1.4c2.1-0.4,4.8-0.6,7.9-0.6
						c3.2,0,5.7,0.3,7.2,0.9c1.4,0.6,2.1,1.6,2.1,3.1c0,0.6-0.1,1.1-0.3,1.4s-0.8,0.9-1.7,1.6c-0.3,0.3-0.6,1-0.9,2.1
						c-0.3,1.1-0.4,2.2-0.4,3.2c0,1.7,0.4,2.6,1.2,2.6c0.5,0,0.9-0.2,1.4-0.6c0.4-0.4,1.3-1.4,2.7-3.1c1.6-1.9,2.3-3.2,2.3-3.9
						c0-0.4-0.2-0.9-0.6-1.7c-0.3-0.5-0.4-1-0.4-1.4c0-1.5,0.8-2.6,2.5-3.2s4.5-0.9,8.5-0.9c3.2,0,5.5,0.2,7.1,0.6
						c1.9,0.5,2.8,1.6,2.8,3.3c0,0.7-0.2,1.3-0.6,1.8s-0.9,0.9-1.5,1.1c-0.4,0.1-1.4,0.2-3,0.2c-1.1,0-1.9,0.1-2.5,0.4
						C439.4,389.2,438.7,389.8,437.8,390.6z"/>
					<path class="st8" d="M476,381.3c5.3,0,10,1.5,13.9,4.6c2.7,2.1,4.9,4.8,6.5,8.1c1.6,3.3,2.4,6.6,2.4,9.9
						c0,4.9-1.6,9.2-4.8,13.1c-2.7,3.3-6.3,5.6-10.7,7c-2.7,0.9-5.4,1.3-8.2,1.3c-3.6,0-7-0.7-10.3-2.2c-3.9-1.8-7-4.5-9.3-8.2
						c-2.2-3.5-3.3-7.4-3.3-11.6c0-4.9,1.4-9.3,4.2-13c2.5-3.3,5.8-5.8,10-7.4C469.5,381.8,472.6,381.3,476,381.3z M473.1,390.2
						c-1.7,0-3.1,0.8-4.1,2.3c-0.8,1.2-1.2,2.5-1.2,4.1c0,2.3,0.5,5,1.4,8.1c1,3.1,2.1,5.8,3.6,8.2c0.6,1,1.4,1.8,2.4,2.4
						c0.9,0.6,1.9,0.9,2.9,0.9c1.6,0,2.8-0.6,3.8-1.8c1-1.2,1.4-2.7,1.4-4.7c0-2.5-0.4-5.2-1.2-8.1s-1.9-5.4-3.1-7.4
						c-0.8-1.3-1.7-2.3-2.7-3C475.2,390.6,474.1,390.2,473.1,390.2z"/>
					<path class="st9" d="M525.2,381.3c3,0,5.9,0.7,8.7,2c1.3,0.6,2.2,0.9,2.8,0.9c0.4,0,1-0.1,1.8-0.3c0.3-0.1,0.6-0.1,0.9-0.1
						c1.1,0,2,0.5,2.8,1.5c2,2.4,3,5.4,3,8.9c0,2.5-0.9,4.3-2.6,5.5c-0.9,0.6-2,0.9-3.1,0.9s-1.9-0.2-2.6-0.7s-1.3-1.3-1.9-2.4
						c-0.9-1.6-1.6-2.8-2.2-3.5s-1.2-1.4-2-1.9c-2-1.4-4.1-2.1-6.3-2.1c-2.1,0-3.8,0.8-5.1,2.3c-1.3,1.5-1.9,3.6-1.9,6.2
						c0,3.6,0.9,6.8,2.7,9.8c2.4,3.9,5.9,5.9,10.5,5.9c1.7,0,3.3-0.3,5-0.8c1.7-0.5,2.9-1.3,3.8-2.2c0.8-0.7,1.4-1.1,1.9-1.1
						c0.7,0,1.3,0.3,1.9,1c0.5,0.7,0.8,1.5,0.8,2.4c0,1.2-0.4,2.5-1.1,4c-0.7,1.5-1.6,2.7-2.6,3.5c-0.4,0.4-1.3,0.7-2.7,0.9
						c-0.8,0.1-1.8,0.5-3.1,1.1c-3.1,1.5-6.2,2.2-9.5,2.2c-3.5,0-6.9-0.8-10.3-2.3c-4-1.8-7.1-4.6-9.5-8.3
						c-2.3-3.6-3.4-7.4-3.4-11.3c0-4.6,1.4-8.8,4.3-12.6c2.5-3.3,5.7-5.8,9.7-7.5C518.9,381.9,522,381.3,525.2,381.3z"/>
					<path class="st10" d="M561.3,381.5c6.4,0,9.7,1.3,9.7,4c0,0.7-0.2,1.3-0.5,1.8c-0.3,0.5-1,1-1.9,1.5c-0.8,0.5-1.3,1.1-1.5,2
						c-0.2,0.8-0.3,2.4-0.3,4.9c0,1.4,0.3,2.3,0.8,2.7c0.3,0.2,0.8,0.3,1.4,0.4c0.6,0,2.1,0.1,4.4,0.1c2.1,0,3.5-0.1,4-0.3
						c0.5-0.2,0.8-0.8,0.8-1.7c0-2.7-0.1-4.6-0.4-5.7c-0.2-1.1-0.7-1.8-1.5-2.2c-0.9-0.5-1.5-1-1.8-1.3c-0.3-0.4-0.4-0.8-0.4-1.4
						c0-0.8,0.3-1.6,1-2.3c0.6-0.7,1.5-1.2,2.5-1.4c2.1-0.5,4.8-0.8,8.1-0.8c3.8,0,6.6,0.3,8.4,1s2.7,1.8,2.7,3.2
						c0,1.2-0.6,2.2-1.9,2.8c-0.8,0.4-1.3,0.7-1.6,1.1c-0.2,0.3-0.4,1-0.6,1.9c-0.1,0.5-0.2,2.8-0.3,6.9s-0.2,7.3-0.2,9.7
						c0,4.2,0.2,6.9,0.5,8c0.2,0.6,0.4,1,0.6,1.2s0.9,0.6,2,1.2c0.8,0.4,1.2,1.1,1.2,2c0,1.6-0.9,2.7-2.8,3.4
						c-1.9,0.7-4.9,1.1-9.1,1.1c-3.7,0-6.4-0.4-8.2-1.1c-1.6-0.7-2.4-1.7-2.4-3.1c0-1.2,0.6-2.1,1.8-2.8c0.6-0.3,1-0.7,1.2-1
						c0.2-0.3,0.4-0.9,0.6-1.8c0.4-1.7,0.6-3.9,0.6-6.4c0-1.3-0.2-2.1-0.6-2.4c-0.4-0.3-1.4-0.5-3-0.5c-3.7,0-6.1,0.2-7.1,0.6
						c-0.4,0.2-0.7,0.7-0.8,1.5c-0.1,1-0.2,2.2-0.2,3.7c0,2.4,0.3,4.1,1,5.1c0.2,0.3,0.8,0.8,1.6,1.3c0.9,0.5,1.3,1.3,1.3,2.4
						c0,1.4-1,2.6-3,3.3c-2,0.8-4.9,1.1-8.6,1.1c-3.4,0-6.2-0.4-8.3-1.1c-0.9-0.3-1.7-0.7-2.2-1.3c-0.5-0.6-0.8-1.2-0.8-1.9
						s0.2-1.2,0.5-1.6c0.3-0.4,1.1-0.8,2.2-1.4c0.6-0.3,1-0.7,1.2-1.1c0.2-0.4,0.4-1.2,0.5-2.3c0.3-2.4,0.5-5.6,0.5-9.5
						c0-0.7,0-1.6,0-2.6c-0.1-5-0.1-7.8-0.1-8.5c0-1.8-0.1-3-0.4-3.5c-0.3-0.6-1.2-1.2-2.5-1.9c-0.9-0.4-1.4-1.1-1.4-2
						c0-2.1,2-3.5,6.1-4.3C556.4,381.7,558.8,381.5,561.3,381.5z"/>
					<path class="st11" d="M617.6,381.3c2.1,0,4.9,0.5,8.4,1.6c0.4,0.1,0.7,0.2,1,0.2c0.2,0,0.8-0.2,1.9-0.6
						c0.3-0.1,0.7-0.2,1.1-0.2c1.4,0,2.8,1.1,4.4,3.3c1.5,2.2,2.3,4.3,2.3,6.3c0,1.2-0.3,2.1-1,2.9c-0.7,0.8-1.5,1.2-2.5,1.2
						c-0.8,0-1.5-0.2-2-0.5s-1.7-1.3-3.4-2.9c-2.5-2.3-4.9-3.5-7.3-3.5c-1.2,0-2.1,0.3-2.8,0.8c-0.7,0.5-1,1.3-1,2.2
						c0,1.8,1.6,3.2,4.7,4.1c4.3,1.3,7,2.2,8.2,2.8c5.3,2.6,7.9,6.3,7.9,11.3c0,4.4-1.8,8-5.4,10.8c-3.7,2.9-8.5,4.3-14.4,4.3
						c-2.6,0-5.4-0.3-8.4-0.9c-2.9-0.6-5.1-1.4-6.4-2.2c-1-0.7-1.9-2.1-2.7-4.3c-0.8-2.2-1.2-4.4-1.2-6.5c0-1,0.2-1.8,0.6-2.3
						c0.5-0.7,1.2-1,2-1c0.8,0,1.5,0.4,2.3,1.2c0.4,0.5,1.5,1.9,3.1,4.4c0.8,1.2,2,2.1,3.6,2.9c1.7,0.8,3.4,1.1,5.2,1.1
						c1.5,0,2.8-0.3,3.7-0.9c1-0.6,1.4-1.3,1.4-2.2c0-0.8-0.4-1.5-1.1-2.1s-2-1.2-3.6-1.7c-3-0.9-5.2-1.8-6.8-2.6
						c-1.6-0.8-3-1.8-4.3-2.9c-3.3-2.9-4.9-6.2-4.9-9.9c0-1.8,0.4-3.6,1.3-5.3c0.8-1.7,2-3.2,3.6-4.5
						C608.3,382.7,612.6,381.3,617.6,381.3z"/>
					<path class="st12" d="M674.4,381.3c2.1,0,4.9,0.5,8.4,1.6c0.4,0.1,0.7,0.2,1,0.2c0.2,0,0.8-0.2,1.9-0.6
						c0.3-0.1,0.7-0.2,1.1-0.2c1.4,0,2.8,1.1,4.4,3.3c1.5,2.2,2.3,4.3,2.3,6.3c0,1.2-0.3,2.1-1,2.9c-0.7,0.8-1.5,1.2-2.5,1.2
						c-0.8,0-1.5-0.2-2-0.5s-1.7-1.3-3.4-2.9c-2.5-2.3-4.9-3.5-7.3-3.5c-1.2,0-2.1,0.3-2.8,0.8c-0.7,0.5-1,1.3-1,2.2
						c0,1.8,1.6,3.2,4.7,4.1c4.3,1.3,7,2.2,8.2,2.8c5.3,2.6,7.9,6.3,7.9,11.3c0,4.4-1.8,8-5.4,10.8c-3.7,2.9-8.5,4.3-14.4,4.3
						c-2.6,0-5.4-0.3-8.4-0.9c-2.9-0.6-5.1-1.4-6.4-2.2c-1-0.7-1.9-2.1-2.7-4.3c-0.8-2.2-1.2-4.4-1.2-6.5c0-1,0.2-1.8,0.6-2.3
						c0.5-0.7,1.2-1,2-1c0.8,0,1.5,0.4,2.3,1.2c0.4,0.5,1.5,1.9,3.1,4.4c0.8,1.2,2,2.1,3.6,2.9c1.7,0.8,3.4,1.1,5.2,1.1
						c1.5,0,2.8-0.3,3.7-0.9c1-0.6,1.4-1.3,1.4-2.2c0-0.8-0.4-1.5-1.1-2.1c-0.7-0.6-2-1.2-3.6-1.7c-3-0.9-5.2-1.8-6.8-2.6
						c-1.6-0.8-3-1.8-4.3-2.9c-3.3-2.9-4.9-6.2-4.9-9.9c0-1.8,0.4-3.6,1.3-5.3c0.8-1.7,2-3.2,3.6-4.5
						C665.2,382.7,669.4,381.3,674.4,381.3z"/>
					<path class="st13" d="M732.5,390.6l-3.3,3.2c-1.2,1.2-1.8,2.2-1.8,3.2c0,0.5,0.1,1,0.4,1.6s0.8,1.2,1.6,2.1l11.6,13.4
						c1,1.2,1.7,2,2.1,2.3c0.4,0.3,1,0.7,1.8,1c1.1,0.5,1.9,1,2.4,1.6s0.7,1.3,0.7,2.3c0,2.2-1.6,3.3-4.7,3.3h-11.8
						c-0.8,0-1.4-0.2-1.9-0.5c-0.5-0.4-1.2-1.2-2.2-2.6c-1.6-2.2-3.7-4.8-6.4-7.6c-1.2-1.2-2-2.1-2.4-2.4c-0.5-0.4-0.9-0.6-1.3-0.6
						c-1.2,0-1.8,1.1-1.8,3.4c0,1.8,0.4,3.1,1.2,3.8c0.1,0.1,0.5,0.3,1,0.7c1.1,0.7,1.7,1.6,1.7,2.7c0,1.4-0.9,2.3-2.7,2.9
						c-1.8,0.6-4.9,0.9-9.2,0.9c-3.8,0-6.6-0.2-8.4-0.7c-0.7-0.2-1.3-0.6-1.8-1.1s-0.7-1.2-0.7-1.8c0-1.1,0.6-2,1.9-2.8
						c0.6-0.4,1-0.8,1.2-1.2c0.2-0.4,0.5-1.2,0.7-2.2c0.4-2.3,0.6-5.9,0.6-10.8c0-5.8-0.2-9.9-0.7-12.3c-0.2-1-0.4-1.7-0.7-2.1
						c-0.3-0.4-0.8-0.9-1.5-1.3c-1.2-0.7-1.7-1.6-1.7-2.8c0-1,0.4-1.8,1.1-2.4c0.7-0.6,1.9-1.1,3.5-1.4c2.1-0.4,4.8-0.6,7.9-0.6
						c3.2,0,5.7,0.3,7.2,0.9c1.4,0.6,2.1,1.6,2.1,3.1c0,0.6-0.1,1.1-0.3,1.4c-0.2,0.3-0.8,0.9-1.7,1.6c-0.3,0.3-0.6,1-0.9,2.1
						s-0.4,2.2-0.4,3.2c0,1.7,0.4,2.6,1.2,2.6c0.5,0,0.9-0.2,1.4-0.6c0.4-0.4,1.3-1.4,2.7-3.1c1.5-1.9,2.3-3.2,2.3-3.9
						c0-0.4-0.2-0.9-0.6-1.7c-0.3-0.5-0.4-1-0.4-1.4c0-1.5,0.8-2.6,2.5-3.2c1.7-0.6,4.5-0.9,8.5-0.9c3.2,0,5.5,0.2,7.1,0.6
						c1.9,0.5,2.8,1.6,2.8,3.3c0,0.7-0.2,1.3-0.6,1.8c-0.4,0.5-0.9,0.9-1.5,1.1c-0.4,0.1-1.4,0.2-3,0.2c-1.1,0-1.9,0.1-2.5,0.4
						C734.1,389.2,733.4,389.8,732.5,390.6z"/>
					<path class="st14" d="M770.7,381.3c5.3,0,10,1.5,13.9,4.6c2.7,2.1,4.9,4.8,6.5,8.1c1.6,3.3,2.4,6.6,2.4,9.9
						c0,4.9-1.6,9.2-4.8,13.1c-2.7,3.3-6.3,5.6-10.7,7c-2.7,0.9-5.4,1.3-8.2,1.3c-3.6,0-7-0.7-10.3-2.2c-3.9-1.8-7-4.5-9.3-8.2
						c-2.2-3.5-3.3-7.4-3.3-11.6c0-4.9,1.4-9.3,4.2-13c2.5-3.3,5.8-5.8,10-7.4C764.1,381.8,767.2,381.3,770.7,381.3z M767.7,390.2
						c-1.7,0-3.1,0.8-4.1,2.3c-0.8,1.2-1.2,2.5-1.2,4.1c0,2.3,0.5,5,1.4,8.1s2.1,5.8,3.6,8.2c0.6,1,1.4,1.8,2.4,2.4
						c0.9,0.6,1.9,0.9,2.9,0.9c1.6,0,2.8-0.6,3.8-1.8s1.4-2.7,1.4-4.7c0-2.5-0.4-5.2-1.2-8.1c-0.8-2.9-1.8-5.4-3.1-7.4
						c-0.8-1.3-1.7-2.3-2.7-3C769.8,390.6,768.8,390.2,767.7,390.2z"/>
					<path class="st15" d="M816.2,395.7v14.2c0,3.2,0.3,5.3,0.8,6.2c0.7,1.1,2.1,1.6,4.3,1.6c2.4,0,4.2-0.5,5.6-1.6
						c1.4-1,2.3-2.6,2.9-4.8c0.3-1.3,1-2,2.1-2s2,0.5,2.7,1.5c0.7,1,1,2.3,1,3.8c0,2.6-1,5.3-2.9,8.2c-0.6,0.9-1.1,1.6-1.6,1.9
						s-1,0.5-1.6,0.5l-6.9-0.8h-21.7c-1.4,0-2.4-0.2-3-0.5c-0.8-0.5-1.3-1.2-1.3-2.1c0-0.6,0.1-1,0.4-1.3c0.3-0.3,1-0.7,2-1.2
						c1.2-0.6,1.9-1.3,2.3-2.4c0.3-0.8,0.4-3.3,0.4-7.4c0-1.9-0.1-4.6-0.2-8.2c-0.1-3.4-0.2-6-0.2-7.8c0-1.7-0.1-2.8-0.4-3.4
						c-0.3-0.6-0.8-1-1.6-1.3c-1.4-0.5-2.2-0.9-2.6-1.1c-0.7-0.5-1-1.1-1-1.8c0-1.5,1.3-2.7,3.8-3.4c2.1-0.7,5-1,8.6-1
						c4,0,7,0.2,9,0.6c2.6,0.6,3.8,1.7,3.8,3.3c0,0.7-0.2,1.2-0.5,1.5c-0.3,0.3-1.2,0.8-2.5,1.3c-0.8,0.4-1.3,1-1.5,1.8
						C816.3,391,816.2,392.8,816.2,395.7z"/>
					<path class="st16" d="M842.9,382.1h15.9c3.2,0,5.6-0.1,7.1-0.2s2.9-0.4,4.3-0.8c0.4-0.1,0.8-0.2,1-0.2c1.1,0,2,0.6,2.9,1.7
						c1.4,1.9,2,4.2,2,6.8c0,1.3-0.3,2.4-0.9,3.2c-0.6,0.8-1.3,1.2-2.3,1.2c-0.7,0-1.2-0.1-1.6-0.4c-0.4-0.3-0.9-0.9-1.5-1.9
						c-0.9-1.4-2.1-2.3-3.5-2.8s-3.7-0.7-6.9-0.7c-2.4,0-3.8,0.4-4.3,1.3c-0.3,0.5-0.4,1.1-0.5,1.8c-0.1,0.8-0.1,2.7-0.1,5.9
						c0,1.2,0.2,2,0.6,2.3c0.4,0.3,1.5,0.4,3.3,0.4c0.9,0,1.5-0.2,1.9-0.5c0.4-0.4,0.6-1,0.7-1.9c0.1-1.2,0.3-2,0.4-2.5
						c0.2-0.4,0.4-0.8,0.9-1.2c0.4-0.4,0.9-0.6,1.5-0.6c0.8,0,1.6,0.4,2.2,1.2c0.4,0.6,0.8,1.7,1.1,3.2c0.3,1.5,0.5,3.1,0.5,4.8
						c0,3.3-0.5,5.9-1.5,8c-0.6,1.1-1.4,1.7-2.5,1.7c-0.7,0-1.2-0.2-1.5-0.5c-0.3-0.4-0.5-1.1-0.6-2.2c-0.3-2.3-1.7-3.5-4.1-3.5
						c-0.9,0-1.6,0.3-1.9,0.9s-0.5,1.7-0.5,3.3c0,1,0.1,2.2,0.2,3.8c0.1,1.5,0.3,2.6,0.4,3.1c0.2,0.6,0.7,1,1.5,1.3
						c0.9,0.2,2.3,0.4,4.3,0.4c3.1,0,5.4-0.4,7-1.2c1.6-0.8,2.9-2.2,3.8-4.3c0.6-1.2,1.1-2,1.6-2.4s1.1-0.6,1.8-0.6
						c0.9,0,1.6,0.4,2.2,1.1c0.6,0.8,0.9,1.7,0.9,2.8c0,1.2-0.3,2.8-1,4.7c-0.6,1.9-1.4,3.5-2.4,5c-0.5,0.7-0.9,1.2-1.2,1.4
						c-0.3,0.2-0.7,0.4-1.2,0.4c-0.4,0-1-0.1-1.7-0.2c-1.3-0.2-3.1-0.4-5.3-0.5h-26.3c-1.1,0-1.9-0.2-2.4-0.7
						c-0.6-0.5-0.9-1.1-0.9-2c0-0.6,0.1-1,0.4-1.3c0.2-0.3,0.8-0.6,1.7-1c0.6-0.3,1.1-0.6,1.4-1s0.5-1,0.7-1.7c0.7-3.1,1-7.3,1-12.6
						c0-8-0.5-13-1.5-15.1c-0.2-0.4-0.4-0.7-0.7-0.9c-0.2-0.2-0.8-0.4-1.5-0.6c-1.2-0.4-1.8-1.1-1.8-2.4c0-0.7,0.2-1.3,0.6-1.8
						c0.4-0.5,0.9-0.9,1.6-1C839,382.2,840.5,382.1,842.9,382.1z"/>
					<path class="st17" d="M888.2,381.3c2.2,0,4,0.9,5.4,2.6c1.2,1.5,1.9,3.3,1.9,5.4c0,2.5-0.6,5-1.9,7.6c-1.3,2.6-3,4.9-5.3,7.1
						c-1.3,1.2-2.4,1.8-3.5,1.8c-0.7,0-1.4-0.2-2-0.6s-0.9-0.9-0.9-1.4c0-0.3,0.2-0.7,0.6-1.1c1.3-1.4,2.2-2.5,2.8-3.4
						c0.5-0.9,0.8-1.8,0.8-2.7c0-0.7-0.4-1.3-1.1-1.8c-1.3-1-2.2-2-2.8-3s-0.8-2.1-0.8-3.4c0-2,0.6-3.7,1.9-5.1
						C884.6,382,886.2,381.3,888.2,381.3z"/>
					<path d="M918.1,381.3c2.1,0,4.9,0.5,8.4,1.6c0.4,0.1,0.7,0.2,1,0.2c0.2,0,0.8-0.2,1.9-0.6c0.3-0.1,0.7-0.2,1.1-0.2
						c1.4,0,2.8,1.1,4.4,3.3c1.5,2.2,2.3,4.3,2.3,6.3c0,1.2-0.3,2.1-1,2.9s-1.5,1.2-2.5,1.2c-0.8,0-1.5-0.2-2-0.5s-1.7-1.3-3.4-2.9
						c-2.5-2.3-4.9-3.5-7.3-3.5c-1.2,0-2.1,0.3-2.8,0.8c-0.7,0.5-1,1.3-1,2.2c0,1.8,1.6,3.2,4.7,4.1c4.3,1.3,7,2.2,8.2,2.8
						c5.3,2.6,7.9,6.3,7.9,11.3c0,4.4-1.8,8-5.4,10.8c-3.7,2.9-8.5,4.3-14.4,4.3c-2.6,0-5.4-0.3-8.4-0.9c-2.9-0.6-5.1-1.4-6.4-2.2
						c-1-0.7-1.9-2.1-2.7-4.3c-0.8-2.2-1.2-4.4-1.2-6.5c0-1,0.2-1.8,0.6-2.3c0.5-0.7,1.2-1,2-1c0.8,0,1.5,0.4,2.3,1.2
						c0.4,0.5,1.5,1.9,3.1,4.4c0.8,1.2,2,2.1,3.6,2.9c1.7,0.8,3.4,1.1,5.2,1.1c1.5,0,2.8-0.3,3.7-0.9c1-0.6,1.4-1.3,1.4-2.2
						c0-0.8-0.4-1.5-1.1-2.1c-0.7-0.6-2-1.2-3.6-1.7c-3-0.9-5.2-1.8-6.8-2.6c-1.6-0.8-3-1.8-4.3-2.9c-3.3-2.9-4.9-6.2-4.9-9.9
						c0-1.8,0.4-3.6,1.3-5.3c0.8-1.7,2-3.2,3.6-4.5C908.9,382.7,913.1,381.3,918.1,381.3z"/>
				</g>
			</g>
			<g id="Layer_3">
				<g>
					<path d="M417.3,369.6c-0.2,2.1-1,3.8-2.4,4.9c-1.3,1.2-3.1,1.7-5.3,1.7c-2.4,0-4.3-0.9-5.7-2.6c-1.4-1.7-2.2-4-2.2-6.9v-1.9
						c0-1.9,0.3-3.5,1-4.9s1.6-2.5,2.8-3.3s2.6-1.1,4.3-1.1c2.1,0,3.9,0.6,5.1,1.8s2,2.8,2.3,5h-2.7c-0.2-1.6-0.7-2.8-1.5-3.5
						s-1.8-1.1-3.2-1.1c-1.7,0-3,0.6-4,1.9s-1.4,3-1.4,5.4v2c0,2.2,0.5,3.9,1.4,5.2c0.9,1.3,2.2,1.9,3.8,1.9c1.5,0,2.6-0.3,3.4-1
						s1.3-1.8,1.6-3.5H417.3z"/>
					<path d="M436.4,375.9h-2.7v-9.3h-10.2v9.3h-2.7v-20.2h2.7v8.7h10.2v-8.7h2.7V375.9z"/>
					<path d="M452.5,366.6h-8.7v7.1h10.1v2.2h-12.8v-20.2h12.7v2.2h-10v6.5h8.7V366.6z"/>
					<path d="M472,369.6c-0.2,2.1-1,3.8-2.4,4.9c-1.3,1.2-3.1,1.7-5.3,1.7c-2.4,0-4.3-0.9-5.7-2.6s-2.2-4-2.2-6.9v-1.9
						c0-1.9,0.3-3.5,1-4.9s1.6-2.5,2.8-3.3s2.6-1.1,4.3-1.1c2.1,0,3.9,0.6,5.1,1.8s2,2.8,2.3,5h-2.7c-0.2-1.6-0.7-2.8-1.5-3.5
						s-1.8-1.1-3.2-1.1c-1.7,0-3,0.6-4,1.9s-1.4,3-1.4,5.4v2c0,2.2,0.5,3.9,1.4,5.2c0.9,1.3,2.2,1.9,3.8,1.9c1.5,0,2.6-0.3,3.4-1
						c0.8-0.7,1.3-1.8,1.6-3.5H472z"/>
					<path d="M480.8,366.6l-2.5,2.6v6.8h-2.7v-20.2h2.7v10l9-10h3.2l-7.9,8.9l8.6,11.3H488L480.8,366.6z"/>
				</g>
				<g>
					<g>
						<path d="M754.2,446.7l0.4,2.6l0.6-2.4l3.9-13.9h2.2l3.9,13.9l0.5,2.4l0.4-2.7l3.1-13.6h2.6l-4.8,20h-2.4l-4.1-14.5l-0.3-1.5
							l-0.3,1.5l-4.3,14.5h-2.4l-4.8-20h2.6L754.2,446.7z"/>
						<path d="M786.1,443.8h-8.6v7.1h10v2.2h-12.7v-20h12.5v2.2h-9.9v6.4h8.6L786.1,443.8L786.1,443.8z"/>
						<path d="M790.7,453v-20h6.5c2.2,0,3.8,0.4,4.9,1.3s1.6,2.2,1.6,4c0,0.9-0.3,1.8-0.8,2.5s-1.3,1.3-2.2,1.7
							c1.1,0.3,1.9,0.9,2.6,1.7s0.9,1.9,0.9,3c0,1.8-0.6,3.2-1.7,4.2c-1.1,1-2.8,1.5-4.9,1.5L790.7,453L790.7,453z M793.4,441.6h4
							c1.2,0,2.1-0.3,2.8-0.9c0.7-0.6,1-1.4,1-2.3c0-1.1-0.3-1.9-1-2.4c-0.6-0.5-1.6-0.7-2.9-0.7h-3.9L793.4,441.6L793.4,441.6z
							 M793.4,443.7v7.2h4.3c1.2,0,2.2-0.3,2.9-1c0.7-0.6,1.1-1.5,1.1-2.6c0-2.4-1.3-3.6-3.9-3.6H793.4z"/>
						<path d="M814.1,444.1c-2.3-0.6-3.9-1.4-4.9-2.4c-1-0.9-1.5-2.1-1.5-3.5c0-1.6,0.6-2.9,1.9-3.9s2.9-1.5,4.9-1.5
							c1.4,0,2.6,0.3,3.7,0.8c1.1,0.5,1.9,1.3,2.5,2.2c0.6,0.9,0.9,2,0.9,3.1H819c0-1.2-0.4-2.2-1.2-2.9c-0.8-0.7-1.9-1-3.2-1
							c-1.3,0-2.3,0.3-3,0.9c-0.7,0.6-1.1,1.4-1.1,2.4c0,0.8,0.3,1.5,1,2.1c0.7,0.6,1.9,1.1,3.5,1.5s3,1,3.9,1.5
							c0.9,0.6,1.6,1.2,2.1,2s0.7,1.6,0.7,2.6c0,1.6-0.6,2.9-1.9,3.9c-1.3,1-2.9,1.5-5.1,1.5c-1.4,0-2.6-0.3-3.8-0.8
							c-1.2-0.5-2.1-1.2-2.7-2.2c-0.6-0.9-1-2-1-3.1h2.6c0,1.2,0.4,2.2,1.3,2.9c0.9,0.7,2.1,1,3.6,1c1.4,0,2.5-0.3,3.2-0.8
							c0.7-0.5,1.1-1.3,1.1-2.3s-0.3-1.7-1-2.3C817.1,445.1,815.9,444.6,814.1,444.1z"/>
						<path d="M827.7,453h-2.6v-20h2.6V453z"/>
						<path d="M845.9,435.2h-6.4V453h-2.6v-17.8h-6.4V433h15.4V435.2z"/>
						<path d="M860.1,443.8h-8.6v7.1h10v2.2h-12.7v-20h12.5v2.2h-9.9v6.4h8.6L860.1,443.8L860.1,443.8z"/>
						<path d="M887.1,453h-2.6v-9.2h-10.1v9.2h-2.6v-20h2.6v8.6h10.1V433h2.6V453z"/>
						<path d="M903,443.8h-8.6v7.1h10v2.2h-12.7v-20h12.5v2.2h-9.9v6.4h8.6L903,443.8L903,443.8z"/>
						<path d="M915,444.9h-4.7v8.1h-2.6v-20h6.6c2.2,0,4,0.5,5.2,1.5c1.2,1,1.8,2.5,1.8,4.5c0,1.2-0.3,2.3-1,3.2
							c-0.7,0.9-1.6,1.6-2.8,2.1l4.7,8.5v0.2h-2.8L915,444.9z M910.3,442.8h4c1.3,0,2.3-0.3,3.1-1c0.8-0.7,1.2-1.6,1.2-2.7
							c0-1.2-0.4-2.2-1.1-2.8c-0.7-0.7-1.8-1-3.2-1h-4V442.8z"/>
						<path d="M936.3,443.8h-8.6v7.1h10v2.2H925v-20h12.5v2.2h-9.9v6.4h8.6v2.1H936.3z"/>
					</g>
				</g>
			</g>
		</g>
	</g>
</g>
</svg>
