<?xml version="1.0" encoding="utf-8"?>
<!-- Generator: Adobe Illustrator 22.0.1, SVG Export Plug-In . SVG Version: 6.00 Build 0)  -->
<svg version="1.1" xmlns="http://www.w3.org/2000/svg" xmlns:xlink="http://www.w3.org/1999/xlink" x="0px" y="0px"
	 viewBox="0 0 841.9 595.3" style="enable-background:new 0 0 841.9 595.3;" xml:space="preserve">
<style type="text/css">
	.st0{fill:#F4B60A;}
	.st1{opacity:0.67;fill:#F4B60A;}
	.st2{opacity:0.42;fill:#F4B60A;}
	.st3{fill:#26649B;}
	.st4{fill:#BFDDB9;}
	.st5{fill:#E4F3F3;}
	.st6{display:none;}
	.st7{display:inline;}
	.st8{font-family:'KeepCalm-Medium';}
	.st9{font-size:52.8967px;}
	.st10{fill:#E52722;}
	.st11{fill:#AD1E1F;}
	.st12{fill:#E52426;}
	.st13{display:inline;fill:#E52426;}
</style>
<g id="Layer_7">
</g>
<g id="Layer_2">
	<circle class="st0" cx="327.9" cy="138.8" r="70.2"/>
	<circle class="st1" cx="321.5" cy="135.5" r="88.5"/>
	<circle class="st2" cx="312.8" cy="126.8" r="109.6"/>
</g>
<g id="Layer_1">
	<g>
		<g>
			<path id="globe_1_" class="st3" d="M424.5,418.6c-90.5,0-163.8-73.3-163.8-163.8c0-90.5,73.4-163.8,163.8-163.8
				c90.5,0,163.8,73.3,163.8,163.8C588.3,345.3,515,418.6,424.5,418.6z"/>
			<g id="continents_1_">
				<path class="st4" d="M557.6,257.3c0,0-1,0.7-1.6,1.1c-0.6,0.4-1.5,0.3-3,0.3c-1.6,0-1.3,0.3-2.5,0.3c-1.3,0-0.8,0.8-1.9,0.9
					c-1.2,0.1-2,0.2-2.7,0.2c-0.7,0-0.7-0.9-1.1-0.9c-0.4,0-0.6-0.4-0.7-0.7c0-0.1,0-0.1,0-0.2c0-0.3,0-0.9,0-1.5
					c0-0.7-0.5-1.1-1.1-1.5c-0.6-0.5-0.6-0.9-1.4-1.8c-0.8-0.9-2-2-3.1-2.2c-1.2-0.2-0.1-0.6-1.7-2.7c-1.5-2-0.6-0.8-0.9-2.2
					c-0.1-0.6-0.3-0.8-0.5-1c-0.3-0.3-0.8-0.3-1.5-1c-1.2-1.2-1-0.8-1.2-1.2c-0.2-0.5-0.1-1.8-0.1-2.1c0-0.3-1.4-2.9-1.9-4.2
					c-0.5-1.3-1.3-0.6-1-0.9c0.2-0.2,0-0.4-0.2-0.9c-0.2-0.4-0.5-0.9-0.7-1.8c-0.4-1.8-1.3-3.2-2.4-4.5c-1.1-1.3-0.8-1-0.8-1.9
					c0-0.9-2-2.5-2.1-3c0-0.6-0.7-1.6-0.4-1.3c0.3,0.4,1,1.8,1.4,2.4c0.4,0.6,0.1,0.5,1.8,1.7c1.6,1.3,0.5-0.3,0.5-1.6
					c0-0.4-0.1-1-0.2-1.7c-0.3-1.5-0.9-3.3-1.2-3.3c-0.4,0-0.6-0.1-1.6-0.2c-1,0-0.7-0.2-1.7-0.3c-1,0-0.8-0.7-2.4-0.8
					c-1.6,0-1.7,1-2.9,1.4c-1.2,0.4-3.4-1.5-4.1-1.6c-0.6-0.1-2.5-0.1-3-0.1c-0.4,0-0.7-0.3-1.1-0.5c-0.2-0.1-0.4-0.1-0.6-0.2
					c-0.8,0-2.5-0.9-2.5-0.9s-0.7-0.4-1.5-1.2c-0.8-0.8-1.9-0.2-2.7-0.2c-0.8,0-1.1,1-1.7,1.5c-0.6,0.4,0.1,1.9,0.1,2.7
					c0,0.8-0.5,0.2-1.2,0.7c-0.6,0.5-2.2,0-3-0.6c-0.8-0.6-0.3-0.5-1-1.1c-0.7-0.6-2.5-0.3-3.1-0.4c-0.5,0-0.8,0-1-1.2
					c-0.2-1.2-1.1-1.5-1.1-1.5s-2.2-0.4-3.1-0.4c-1,0-1.8-0.3-2.5-0.3c-0.4,0-0.7-0.4-1-0.7c-0.3-0.3-0.6-0.5-0.9-0.6
					c-0.8,0-1.1-0.8-1.1-0.8s-0.6-0.6-0.5-1.3c0.1-0.7,0.8-1.1,1.1-1.6c0.4-0.6-0.4-1.6-0.6-2c-0.3-0.4,0.9-1.5,0.9-1.5
					s-1.2,0.7-1.2,0.1c0-0.6-1.7-0.9-1.7-0.9c-0.6,0.1-1.2,0.2-1.8,0.3c0,0-1.4,0.1-1.8,0c-0.4,0-1.8,0-1.8,0
					c-0.8,0-1.6-0.1-2.4-0.1c0,0-1.2,0.2-3.9,0.4c-2.7,0.2-2.8,0.1-3.3,0.1c-0.4,0-1.4,0.2-1.4,0.2s-1.7,0.2-2.3,0.5
					c-0.6,0.3-0.7,0.7-1.3,0.7c-0.6,0-1.2,0.1-2.3,0.5c-1.2,0.5,0,0-0.4,0.5c-0.3,0.4-0.5,0.5-0.8,0.5c-0.1,0-0.3,0-0.5,0
					c-0.8-0.2-0.8-0.3-1.2-0.5c-0.4-0.1-0.9,0-1.5,0c-0.6-0.1-1.3-0.1-1.9-0.1c-0.6,0-1.5-0.6-1.5-0.6s-0.6-0.9-1.7-1.1
					c-1.1-0.2-0.9,0.4-0.9,0.4s-0.1,0.6-0.3,1.1c-0.1,0.5-0.7,1.1-0.7,1.7c0,0.6-1.2,0.6-1.5,1.1c-0.3,0.5-1.1,0.4-2,0.8
					c-0.9,0.3-1.7,0.2-2.3,1c-0.6,0.9-1.4,1.4-1.5,2.1c-0.1,0.6-0.8,0.8-0.8,1.6c0,0.7,0.3,1.6,0.3,1.6c-0.1,0.3-0.1,0.7-0.1,1
					c0,0-1.3,0.8-1.2,1.7c0,0.9-2.4,0.7-2.4,0.7s-1.7,0.7-2.2,1.2c-0.5,0.5-1.8,0.7-2.2,0.8c0,0,0,0,0,0c-0.4,0.1,0.3,1.7-2.2,2.7
					c-2.6,1-2.6,3.1-2.9,3.6c-0.3,0.5-0.5,0.7-1.2,1.4c-0.7,0.6-1,1.9-1,1.9s-1.7,1.5-2.3,2.5c-0.7,1-0.5,0.5-0.7,1.4
					c-0.2,0.9,0.3,0.9,0.7,1.6c0.3,0.6,0.2,0.5,1,0.8c0.8,0.3,0,1.7,0,2.8c0,1.1,0.1,0.6,0.1,1.8c0,1.2-0.3,1.5-0.3,2.9
					c0,0.5,0,0.7,0,1c0,0.5-0.1,0.6-0.3,0.8c-0.3,0.4-1.5,2.2-1.5,2.2s-0.3,0.8-0.3,1.4c0,0.7,0,0.8,0,1.5c0,0.8,0,0-0.3,1.2
					c-0.3,1.1,0,0-0.2,0.9c-0.2,0.9,1.2,1.5,1.2,1.5s0,0,0.1,0.1c0.1,0.1,0.3,0.3,0.6,0.7c0.7,0.8,2.2,0.4,2.2,0.4
					c-0.4,0.8,0.6,1.2,1.1,1.4c0.2,0.1,0.3,0.1,0.3,0.1s0.7,1,1.3,1.4c0.7,0.4,0.5,0.6,1.5,1.2c0.6,0.4,1,1.1,1.3,1.5
					c0.1,0.3,0.2,0.5,0.2,0.5s0,1.1,0,1.5c0,0.4,1.2,1,1.6,1.4c0.5,0.4,0.8,0.5,1.9,1c0.3,0.1,0.5,0.2,0.7,0.3
					c0.5,0.4,0.6,0.8,1.1,1.1c0.6,0.5,3.5,2.3,3.5,2.3c0,0,1.7,0.8,3,1.7c1.3,0.8,1.7,0.3,1.7,0.3c0.1,0,0.3-0.1,0.4-0.1
					c0.4-0.1,0.9-0.1,1.3-0.2c0,0,1.6-0.8,2-0.8c0.5,0,1.1-0.6,2.8-0.7c1.7-0.1,2.1-0.1,3.5-0.1c1.4,0,0.6,0.3,1.5,0.7
					c0.5,0.2,1,0.1,1.4,0.1c0.2-0.1,0.4-0.1,0.4-0.1c0.5-0.2,1-0.3,1.5-0.5c0,0,1.2-0.3,1.7-0.5c0.5-0.3,1.4-0.8,2.1-0.8
					c0.7,0,0.9-0.6,1.8-0.7c0.9,0,0.9-0.7,0.9-0.7s0.2,0,0.5-0.1c0.6-0.1,1.5-0.2,2.1-0.3c0,0,0.1,0,0.1,0c0.8-0.1,1.8,0,2.9-0.1
					c1.1,0,1,0.5,2.5,1.4c1.5,0.9,0.3,1,0.1,2.1c-0.2,1.1,0.4,1,1.4,0.9c1,0,2-0.5,2.9-0.6c0.8,0,2.8-0.8,2.8-0.8c0,0,0,0,0,0
					c0.3,0.4,0.6,0.8,0.9,1.1c0,0,0.7,0.5,1.6,1.9c0.7,1,0.3,1.6,0,2.1c-0.1,0.2-0.3,0.4-0.4,0.6c-0.2,0.5-0.5,1.2-0.6,1.9
					c-0.1,0.3-0.1,0.6-0.1,0.9c0,0.7-1,1.4-1.4,3.2c-0.3,1.5,2,4.1,4,6c0.4,0.3,0.8,0.7,1.2,1c0.5,0.4,0.9,0.9,1.1,1.4
					c0.3,0.6,0.5,1.3,0.6,2c0.2,1.1,0.2,2.3,0.5,3.2c0.7,1.9,2,2.1,1.2,2.1c-0.8,0.1-0.4,3,0.3,3.4c0.8,0.4,0.8,3.4-0.9,5.7
					c-1.5,2-3.3,6.6-4,9.5c-0.1,0.5-0.2,0.9-0.3,1.2c-0.4,2.5,4.1,10.7,4.1,10.7c0,0,0.8,5.4,0.6,7.8c-0.2,2,1.6,4.3,2.2,5.4
					c0.1,0.2,0.2,0.4,0.3,0.6c0.2,0.8,0,3,1.5,5.3c1.5,2.4-1,4.4,0.4,7.4c1.4,3,2.9,1.8,5.1,0.3c2.2-1.5,3.3-0.1,4.4-0.2
					c1-0.1,3.5-1.5,5-1.6c1.5-0.1,1.3-2.6,4.5-3.8c3.1-1.2,3.7-2.1,4.5-4.9c0.8-2.8,2.7-3.7,4.6-5.1c1.6-1.2,1.7-1.8,1.2-3.5
					c-0.1-0.3-0.2-0.5-0.3-0.8c-0.8-2.4,4.3-3.9,4.3-3.9c0.9,0,1.6-1.3,2.1-3.9c0.5-2.6,0.4-4.3-1-5.8c-1.3-1.5,0.7-1.9,1.6-2.5
					c0.9-0.5,1.7-1.2,2.5-2c0.8-0.8,1.1-1.7,1.6-2.2c0.5-0.5,2.6-1.2,3.3-1.8c0.6-0.5,1.9-1.3,2.8-2.6c0.9-1.3,1-1.4,0.8-2.7
					c-0.3-1.3,0.1-1.4,0.3-4.1c0.2-2.7,0.4-3.1,0.4-3.1s-0.2-0.6-0.4-1.4c-0.3-1-0.7-2.2-0.8-3.2c-0.3-1.6,0.1-2.4-0.3-3.1
					c-0.5-0.7-0.7-1.4-0.7-3c0-1.6,1-0.7,1.2-1.8c0,0,0-0.1,0-0.1c0.1-1.3,0.2-1.8,0.9-2.2c0.7-0.5-0.2-2.1,0.8-2.3
					c0.8-0.2,1.7-1.4,2-1.9c0.1-0.1,0.1-0.1,0.1-0.1c0,0,1.3-1.2,1.6-1.5c0.3-0.3,1.8-2.2,2.2-2.9c0.4-0.7,2.2-1.9,2.5-2.2
					c0.3-0.3,1.5-0.5,1.8-0.9c0.2-0.5,1.9-2.5,2.5-2.9c0.6-0.3,1.7-1.9,2.2-2.9c0.5-1,0.7-2.1,2.1-4.5c1.4-2.3,1.7-7.1,2.5-8.1
					C558.8,256.9,557.6,257.3,557.6,257.3z M438,224.1c0.1,0,0.4,0,0.7,0c0.2,0,0.3,0,0.5,0C438.8,224.1,438.2,224.1,438,224.1z"/>
				<path class="st4" d="M308.8,165.9c0,0,0.9-0.3,1.4-0.7c0.5-0.3,1.8-2.5,2.1-2.8c0.3-0.3-3.5,0.2-3.5,0.2c-0.5,0.6-1.8,2.5-2.1,3
					c-0.4,0.5-0.2,2.3-0.7,2.5c-0.4,0.2-1.3,2.1-1.9,2.6c-0.6,0.5-1.3,2-1.3,2c0.2,0.4,0.5,0.8,0.7,1.2c0.5-0.2,0.9-0.3,1.4-0.5
					c0.3-0.6,0.7-1.1,1-1.7c0.6-0.2,1.2-0.4,1.7-0.6c-0.1-0.5-0.2-0.9-0.3-1.4c0-0.6,0.1-1.1,0.1-1.7
					C307.9,167.2,308.4,166.6,308.8,165.9z"/>
				<path class="st4" d="M333.5,167.8c0.6-0.2,2.2,0.3,2.6,1c0.4,0.7,0.5,0.9,1.3-0.3c0.8-1.2,0.1-1.6,2.1-2.6c2-1,2.7-2,0.4-2.2
					c-2.3-0.2-2-0.5-3.7-0.6c-1.7-0.1-3,1.1-3.2,0.4c-0.3-0.7,2.6-1.8,2.6-1.8s2-1.9,0.4-1.3c-1.6,0.5-4.5,0.8-3.1,0.2
					c1.4-0.6-1.1-0.7-1.1-0.7c-0.2-0.4-0.4-0.7-0.6-1.1c0,0-2.2,0.2-1.8-0.3c0.4-0.5-1.9-0.1-1.5-0.4c0.5-0.3,0.8-1.4,0.4-1.2
					c-0.3,0.2-2.7-0.3-4.1,0.5c-1.5,0.8-0.4,2.3,0.2,2c0.6-0.3,1.5,0.1,1.5,0.1s-1.2,0.7-1.6,0.8c-0.3,0.2-2.7,1.4-2.7,1.4
					c0.3-0.4,0.5-0.8,0.8-1.2c0.3-0.5,0.5-0.9,0.8-1.4c-0.1-0.3-0.1-0.6-0.2-1c-0.7,0.4-1.5,0.7-2.2,1.1c-0.6,0.3-1.2,0.6-1.8,0.9
					c-0.4,0.4-0.8,0.7-1.1,1.1c0.2-0.7,0.5-1.3,0.7-2c-0.4,0.6-0.9,1.2-1.3,1.7c-0.4,0.5,0.3,4.5-0.1,4.7c-0.5,0.2-1.6-1.3-1.6-1.3
					s0.7-1.2,0.9-1.7c0.1-0.5-1.4-1.2-1.4-1.2c-0.8,1-1.6,1.9-2.3,2.9c-0.5,0.5-0.9,1.1-1.4,1.6c0.1,0.6,0.1,1.1,0.2,1.7
					c0.7-0.2,1.3-0.4,2-0.7c-0.7,0.5-1.3,1-2,1.5c0.1,0.3,0.2,0.6,0.3,0.9c0.6-0.2,1.1-0.4,1.7-0.7c0,0,2.5-0.4,4.4-1.2
					c1.9-0.8,3.7-1.5,3.7-1.5c0.3-0.5,0.6-0.9,0.9-1.4c0,0,2.5,0,3,1c0.4,1,2.1,0.8,2.3,1.8c0.2,1-0.4,1.9-1.4,2.5
					c-1,0.6-1.4,2.9-1.4,2.8c0,0,0,0.8-0.8,1.2c-0.8,0.3-2.4,0.3-2.9,0.8c-0.5,0.5-1.5,1.3-1.5,1.3c0,0-1.7,2.9-0.5,2.4
					c1.2-0.5,0.8-0.7,1.6-1c0.8-0.3,3.8-2.5,4.5-0.5c0.6,2.1,2.2,1.5,2.9,1.4c0.7-0.1,2.8,0.2,2.8-0.2c-0.1-0.4,1.7-0.8-0.1-1.8
					c-1.8-1-1-2.1,0-1.2c1,0.8,2.2,1.1,2.7-0.4c0.5-1.6,2-2.1,0.3-3.2c-1.7-1.1-1.8-1.8-1.8-1.7C332.3,169.4,332.9,168,333.5,167.8z
					"/>
				<path class="st4" d="M341,194.5c-2,0.9-2,0.9-2,0.9c0,0.1,0.1,0.1,0.2,0.2c0,0-1.4,1.4-1.9,2.7c-0.5,1.3-1,2.2-1.7,2.7
					c-0.7,0.5-1.2,3.4-1.2,3.4c0,0,0,0,2.7-1c2.7-1.1,3.9-2.2,3.9-2.2c0.2,0.3,0.3,0.6,0.5,0.9c0.4,0.1,0.9,0.1,1.3,0.2
					c0,0,0.8-0.3,1.2-0.8c0.4-0.5,0.4-1.2,0.4-1.2c-0.1-0.1-0.3-0.3-0.4-0.4c-0.1-0.4-0.2-0.8-0.3-1.2c0-0.4-0.1-0.9-0.2-1.3
					c0,0-1.4-0.1-2.2,0.5c-0.8,0.7-1.2,0.4-1.2,0.4c0.2-0.4,0.4-0.8,0.6-1.2c0,0-1.3,0.1-1.8,0.4C339.6,196.7,342.7,193.7,341,194.5
					z"/>
				<path class="st4" d="M306.1,156c0.5-0.3,1-0.5,1.5-0.8c0.2,0.2,0.3,0.4,0.5,0.6c0.4-0.1,0.8-0.2,1.2-0.3
					c-0.1-0.6-0.1-1.1-0.2-1.7c-0.4-0.1-0.9-0.2-1.3-0.3c-0.4,0.2-0.8,0.3-1.2,0.5c-0.7,0.4-1.4,0.9-2,1.3c0.4,0,0.9,0,1.3,0
					C306,155.6,306,155.8,306.1,156z"/>
				<path class="st4" d="M305.4,162.5c0.7-0.3,1.5-0.1,1.6-0.8c0.1-0.7,0.2-1.5,0.2-1.5c0.1-0.4,0.1-0.9,0.2-1.3
					c-0.6,0.1-1.2,0.2-1.9,0.3c0,0.4,0.1,0.7,0.1,1c0,0-0.3,1.8-0.5,1.3c-0.2-0.5-0.6-2.1-0.8-1.7c-0.3,0.4-1.1,2-1.1,2
					c0.2,0.4,0.4,0.9,0.6,1.3C303.9,163.1,304.8,162.8,305.4,162.5z"/>
				<path class="st4" d="M299,170c0.5,0.1,1,0.2,1.5,0.4c0,0-0.3,1.6,0.9,1.1c1.3-0.5,1.1-1.3,1.1-1.3s1.6-0.9,2.1-1.2
					c0.5-0.3-0.2-2.3-0.3-2.3c0.3-0.1,0.7-0.3,1-0.4c0,0,1-1.9,0.7-2.5c-0.4-0.6-1.5,1.2-2.1,1.4c-0.5,0.2-1.6,0.6-1.6,0.6
					c-0.3,0.4-0.6,0.7-0.8,1.1c0,0.6-0.1,1.1-0.1,1.7c0,0,0,0-1.1-0.2C299.2,168.2,299,170,299,170z"/>
				<path class="st4" d="M408.2,109.7c-2.5,0.7-4.5,1.7-5.2,1.9c-0.6,0.3-3.1,1.2-3.4,1.3c-0.3,0.1,1.3-1,0-1.3
					c-0.1,0-0.2-0.1-0.3-0.1c0,0,0,0,0,0s-0.6-0.7-0.8-0.8c-0.2,0-1,0-1,0c-0.3-0.2-0.6-0.3-1-0.5c0,0-1.3,0.6-1.5,0.6
					c-0.3,0-1,0.1-1.3,0.1c-0.3,0-1.4-0.1-1.4-0.1c-0.4,0.3-0.8,0.6-1.1,0.9c-0.1-0.1-0.2-0.3-0.3-0.4c-0.3,0.1-0.6,0.2-0.9,0.4
					c-0.5,0.1-0.9,0.2-1.4,0.3c-0.3,0.2-0.6,0.3-0.8,0.5c0,0,0-0.1,0-0.1c-0.3,0.1-0.5,0.1-0.8,0.2c-0.4,0.2-0.7,0.4-1.1,0.6
					c-0.4,0.2-0.9,0.4-1.3,0.6c-0.1-0.1-0.2-0.2-0.3-0.3c-0.4,0.1-0.8,0.1-1.2,0.2c-0.4,0.3-0.8,0.6-1.2,0.9
					c-0.3,0.2-0.5,0.4-0.7,0.5c-0.2-0.1-0.3-0.1-0.5-0.2c-0.5,0.2-1.1,0.4-1.6,0.6c-0.2,0.2-0.3,0.5-0.5,0.8
					c-0.1-0.1-0.2-0.1-0.4-0.2c-0.4,0.1-0.9,0.3-1.3,0.4c-0.2,0.3-0.4,0.5-0.7,0.8c-0.3,0.3-0.7,0.6-1,1c-0.2,0-0.4,0-0.7,0
					c-0.5,0.2-0.9,0.4-1.4,0.6c-0.2,0-0.3,0-0.5,0c-0.3,0.5-0.7,0.9-1,1.4c-0.2,0.1-0.4,0.1-0.6,0.2c-0.2,0.2-0.5,0.4-0.7,0.6
					c-0.3,0.1-0.6,0.2-0.9,0.3c-0.1-0.1-0.2-0.1-0.3-0.2c-0.3,0.3-0.6,0.6-1,0.9c-0.5,0.3-1,0.6-1.4,0.9c-0.3,0.5-0.6,1-0.9,1.5
					c-0.5,0.3-0.9,0.5-1.4,0.8c0,0,1.1-1-1.5,0c-2.6,1.1-4.4,1.8-5.1,2.1c-0.7,0.3-2.8,2-2.9,2.3c-0.1,0.4-2,1.3-2,1.3
					c0,0-7.3,4.9-5.8,4.6c1.6-0.3,2.3,0.6,0.3,1.5c-2,0.9-3.8,3.1-6.4,4.2c-2.6,1.1-4,3.4-1.7,2.4c2.3-1,5.1-1.9,5.2-1.9
					c0,0-6.2,4.3-3.5,3.8c2.7-0.5,2.2,0,4.2-0.8c2-0.9,2.3-2.6,4.7-2.4c2.4,0.2,2.8-0.2,3.1,1.2c0.3,1.4,1.5,2.5,0.7,3.8
					c-0.7,1.4-2.4,2.3-2.4,2.3s-0.2,1.5,1.4,0.6c1.7-0.9,2.6-2.7,2.8-2.1c0.2,0.7,1.5,2,1.5,2s-1.8-0.1-2.8,0.3
					c-1,0.4-2.1,1.4-1,1.6c1.2,0.1,3.1-0.4,3.4-0.5c0.3-0.1-0.2,1.5-0.9,1.9c-0.7,0.4-3,2.4-3,2.4s-2.1,2.3-1.5,4.6
					c0.5,2.3,0.9,2.7,1.2,3.9c0.3,1.3,0.1,3.9,1,4.2c0.9,0.4,1.1,1.2,2.5,0.9c1.4-0.2,2.3-0.7,2.5-0.8c0.3-0.1,0.6,0.4,1.1,0.7
					c0.6,0.3,1.1,0.1,2.7-0.6c0.4-0.6,0.8-1.1,1.3-1.7c0.5-1,1.3-3.1,1.3-3.1s0.8-1.4,0.5-2.1c-0.3-0.6,0,0.5,1.6-1.5
					c1.7-2,2-2.3,1.8-3.2c-0.2-0.9-0.7-1.3-0.3-1.5c0.4-0.2,0.8-1.4,2.3-2.1c1.5-0.7,0.9,0.7,3.8-1.9c2.9-2.5,2.9-2.6,4.3-4.1
					c1.4-1.5,0-1.4,2-2.6c1.9-1.2,1.8-1,3.8-2.3c2-1.3,2.8-2.4,3.7-2.7c0.9-0.4,3.9-2.9,6.7-4.7c2.8-1.8,2.2-1.4,1.7-1.2
					c-0.5,0.2-4.6,1-5.7,1.4c-1.2,0.4,0.8-1.6,0.8-1.6c0,0,1.4-1.3,1.6-0.8c0.3,0.6,0.8,1.1,2.5,0.4c1.7-0.7,2.9-1.4,1.6-2
					c-1.2-0.6-1.1-0.6-1.9-1c-0.8-0.4-1-0.2-2.1-0.2c-1.2-0.1-2.4-0.3-1.9-0.5c0.5-0.2,1.6-0.9,3.1-1.5c1.5-0.6,2-0.8,2.8-1.1
					c0.8-0.3,2-0.2,1.9-0.7c0-0.4-0.6-0.4-1.2-0.4c0.7-0.2,1.8-0.6,2.3-1.2c1-1,1.9-2,0.6-1.5c-1.3,0.5,0.9-1.3,0.9-1.3
					c0,0,0.7-1.6-1.3-0.9c-2,0.7-3.6,0.1-1.4-0.7c2.2-0.8,3.7-1.7,3.2-1.7c-0.5,0-3.3-0.1-3.3-0.1c0,0-0.2-0.5,3-2.6
					c3.1-2.1,3.5-3.6,4.3-3.9c0.8-0.2,1.4-0.8,2.5-1.3c1.1-0.4,1.7-1.3,1.7-1.3S410.7,108.9,408.2,109.7z"/>
				<path class="st4" d="M404.7,138c-1.2,1-1.2,0.6-2.3,1c-1.1,0.4-1.6,0.6-2.2,1.3c-0.6,0.6-1.5,1.1-2.3,1.4
					c-0.8,0.3-0.4-0.5-1.3-0.7c-0.8-0.3-4,2.6-3.4,3c0.5,0.4,1.7-0.8,3.1-1.4c1.4-0.6-0.1,0.6-0.4,0.7c-0.3,0.1-2,1.9-2,1.9
					c0.8-0.2,1.7-0.3,2.6-0.5c-0.4,0.5-0.7,1-1.1,1.5c0,0,2-0.9,2.5-0.8c0.5,0.2,2.1,0,3-0.4c0.9-0.4,2-0.8,2-1.2
					c0-0.4,2.2-1.9,3.9-2.8c1.7-0.9,2.8-3.1,2.8-3.1C408.8,136.9,405.9,137.1,404.7,138z"/>
				<path class="st4" d="M308.4,161.8c0,0,1.3-0.7,1.8-0.7c0.5,0,1.4-0.7,1.4-0.7s0.1-1.7-0.5-1.5c-0.6,0.2-1.7,1-1.7,1
					C309,160.5,308.7,161.2,308.4,161.8z"/>
				<path class="st4" d="M314.8,258.3c0,0-2.4-1.1-5.5-1.8c-3.1-0.7-3.1-0.1-3.9-0.5c-0.8-0.4-0.7-0.5-1.9,0
					c-1.2,0.4-2.2,1.5-2.5,2.1c-0.3,0.6-0.1,0.9-0.1,0.9c0.3-0.1,2.1-1.7,2.7-1.8c0.6-0.1,0.5,0.8,1.3,0.5c0.7-0.2,1.8-0.3,2.3,0
					c0.5,0.4,1.4-0.5,1.4-0.5s0.8,0.8,0.7,1.1c-0.2,0.4,1,0.1,1,0.1s0.2,0.8-0.1,0.9C309.9,259.6,313.5,259.3,314.8,258.3z"/>
				<path class="st4" d="M398.4,291.2c-1.1-1.2,0.3-2.3-1.5-2.1c-1.8,0.2-1.1,0.9-3.8,0c-2.7-0.9-3.9-1.7-4.6-1.9
					c-0.7-0.3-3.1-1.6-4.1-1.6c-1,0-1.4,0.1-2.5,0.2c-1.1,0.1-1.9,0.6-2.8,0.3c-0.9-0.2-2.7-1.2-4.1,0.6c-0.2,0.3-0.4,0.5-0.5,0.7
					c-0.1-0.5-0.3-1.3-0.5-1.8c-0.3-0.8-0.4-0.8-2.4-1.2c-1.9-0.4-3.1-0.8-4.1-0.9c-1-0.1-1.7,0.3-2,0.9c-0.1,0.2-0.3,0.4-0.4,0.7
					c0.2-0.4,0.3-0.9,0-1.4c-0.6-0.8-1.3-0.6-2-0.5c-0.7,0.1-2.2,0.2-2.2,0.2s-1.2-0.6-0.3-1.2c1-0.6,1.1-0.7,0.7-1.5
					c-0.4-0.8,0.2-0.2-1.4-0.8c-1.6-0.6-1.1-0.9-1.7-1.7c-0.6-0.8-1.7-2.1-1.7-2.1c-0.3-0.1-0.5-0.2-0.8-0.3c-0.1,0-0.2-0.1-0.3-0.1
					c0,0-3.7-1.4-4.5-1.3c-0.1,0-0.2,0-0.3,0c-0.8,0.1-1.9-0.2-2.9,0c-1.2,0.2-2,0.4-2,0.4s-0.1-0.1-0.2-0.1c-0.5-0.3-2-1.1-2.4-0.9
					c-0.6,0.2-2.1-2.5-3.2-2.1c-0.1,0-0.1,0-0.1,0c-1.1,0.3-2.4,0-2.4,0s1.1-1.1,0.5-1.4c-0.6-0.3-0.6,0-1.7-0.2
					c-1.2-0.3-2.9-0.5-1.7-0.8c1.3-0.3,0.9-0.4,0.9-0.4c-1.2,0.1-2.3,0.2-3.5,0.3c0,0-0.4,1.1-1,1.4c-0.5,0.3-1.3-0.6-2.3-0.4
					c-1,0.2-0.9,0.7-1.9,1c-0.9,0.2-1.1-0.6-1.1-0.6s-0.4-0.6-0.9-0.5c-0.5,0.1-1.7,0.4-2.2,0.5c-0.5,0.1-2,1.6-1.1,2.3
					c0.9,0.7,1.7,1.5,1,1.6c-0.7,0.2-1.5,0.2-1.7-0.8c-0.2-0.9,0.6-1.8,0-2.3c-0.3-0.2-0.5-0.4-0.5-0.5c0-0.1,0.1-0.2,0.2-0.4
					c0.4-0.3,0.7-0.7,0.7-0.7s0.4-0.8-0.5-0.4c-0.9,0.5-0.9,0.5-1.2,1c-0.3,0.5-0.5,1-1.1,1.2c-0.7,0.2-0.8,0.5-0.8,0.9
					c0,0.4-0.2,0.6-0.2,0.6s-0.6-1.2-0.9-0.7c-0.3,0.5-1.4,0.9-1.2,1.6c0.2,0.8,0.6,1.9,0.6,1.9s-1.9,0.6-1.5,1.7
					c0.3,1.1-0.6,2.1-0.6,2.1c0,0,0.9-2.4-0.6-2.8c-1.4-0.4-1.3-0.8-2.4-0.4c-1.1,0.4-0.8,1.3-1.6,1.5c-0.3,0.1-0.4,0.2-0.5,0.3
					c-0.3,0.2-0.6,0.3-1.7-0.3c-1.5-0.7-1.5-0.6-1.7-1.2c-0.2-0.1-0.9-0.5-1.2-0.4c-0.3,0.1-0.4-0.1-1,0c-0.6,0.2-1.5,0.1-1.6,0.3
					c0.3,0.8,0.8,2.2,2,2.2c1.6,0,1.5,0.1,2,0.6c0.6,0.5,0.9,0.5,1.6,0.3c0.7-0.2,1.9,0,2.1,0.6c0.2,0.6,1.8,0.7,1.2-0.2
					c-0.3-0.5-0.5-0.5-0.7-0.5c0,0,0-0.1-0.1-0.1c0-0.1,0.1-0.1,0.2-0.3c0.5-0.6,0.5-0.9,0.7-1.2c0.3-0.2,1.1-0.8,1.6-0.3
					c0.4,0.6,0.7,1.3,0.8,1.6c0.1,0.3,0.9,0.5,1.2,0.9c0.3,0.5,1.4,4.7,1.5,5c0.1,0.3,0.5,1.7-0.3,2.2c-0.8,0.5-1.2,0.5-0.8,1.3
					c0.3,0.8,0.6,0.5,0.3,0.8c0,0-0.1,0.1-0.1,0.1c-0.2,0.4-0.3,1-0.7,1.1c-0.3,0.1-1.2,0.2-0.6,1.3c0.6,1.1,0.1,1.5,0,1.7
					c-0.2,0.3-0.4,0.5,0,1.6c0.4,1.1,0.7,2.4,1.6,1.9c0.9-0.6,0.5,0.8,0.5,1.3c0,0.2-0.5,0.4-0.4,0.6c-0.2,0.4-0.3,1.1,0.3,3.2
					c0.1,0.5-0.4,1.8,0.9,1.8c1.3,0.1,2.1,0.5,3.3,1.9c1.2,1.4,2.4,2.8,3.2,4.4c0.7,1.7,2.6,2.8,3.3,3.7c0.7,0.8,1.3,1.7,1.3,1.7
					s0.7,1.4,2.5,2.3c1.8,0.9,3,1.5,4,1.8c1,0.4,2.6-0.2,3.4,0.7c0.9,0.9,2,2,2.5,2.1c0.1,0,0.2,0.1,0.3,0.1
					c0.4,0.3,0.8,0.8,0.9,0.5c0-0.4,3.4,7.5,4.3,10.2c0.9,2.6,4.3,10.9,4.3,11c0,0,2.4,4.3,1.5,3.9c-0.8-0.5,0.8,1.4,1.3,2.3
					c0.5,0.9,0.6,0.7,1.2,2.5c0.6,1.8,1.7,4.5,2,5.4c0.3,0.9,1.6,5.4,1.6,5.4s-1.2,0.1,0.1,1.6c1.3,1.5,3.1,2.1,3.4,3.4
					c0.3,1.3-0.4,2.7,0.8,3.8c1.2,1.1,1.4,2.9,2,2.8c0.6-0.2,0.3,1,1,2.5c0.8,1.5,1.4,2.1,1.6,1.6c0.2-0.5-0.6-1.7-1.1-2.9
					c-0.5-1.1-0.9-2.3-0.4-2.1c0.5,0.2,1.4,1.7,1.6,2.1c0.2,0.4,0.8,1.6,1.4,2.9c0.6,1.2,1,2.8,1,2.8c-0.1,0.4-0.1,0.9-0.2,1.3
					c0,0-1-0.3-0.8,0.5c0.3,0.8,0.5,2.5,0.5,2.5s1.5-0.3,2-0.4c0.5,0,1.2-0.5,1.3-0.2c0.1,0.3,0.1,2.1-0.3,2.2
					c-0.4,0.1-0.4,2.2-0.4,2.2s1.7,2,2.3,2.4c0.6,0.4,2.3,1.6,2.5,2.2v0c0.1,0.1,0.3,0.3,0.8,0.9c1.4,1.7,2.2,2.1,2.2,2.1
					s0.3-0.4,0.9,0.3c0.6,0.6,1.7,1,1.7,1s0.3,0.6,0.6,0.7c0.3,0.1,1.2,0.3,1.2,0.3s2.3,1.3,2.6,1.2c0.3-0.1,1.6-0.6,2.4-0.4
					c0.8,0.2,2.1,0.2,2.6,0c0.4-0.1,2-0.6,2.5-0.7c0.1,0,0.2,0,0.2,0s0.7-0.6,0.9-0.6c0.3-0.1,0.9-0.4,1.4-0.4
					c0.5,0,1.4-0.3,1.4-0.3c0.5-0.4,1-0.8,1.4-1.2c-0.5,0-4.8,1.8-8.1-0.9c-3.4-2.8-1.8-2-3.9-3.2c-2-1.2-3.3-2-2.3-2.5
					c1.1-0.5,1.2,0,0.7-1.8c-0.4-1.8-0.8-2.2-0.2-2.6c0.6-0.4,1.2,0.6,0.4-1.7c-0.8-2.3-1.5-2.1-2.5-1.8c-1,0.2-1.9,0.1-2.9-1.2
					c-1-1.3-1.2-2.8,0-3.2c1.2-0.5,1-1.8,0.8-2.3c-0.2-0.5-1.4-0.5-0.6-1.8c0.8-1.3,1.7-1.7,0.5-2.1c-1.2-0.5-2.8,0-3.2-0.8
					c-0.4-0.8-3.3-2.2-1.2-2.5c2.2-0.3,3.4,0.8,3.7-0.3c0.3-1,0.7-1.2-0.3-2.2c-1-1-3.1-2.4-2.2-2.6c0.9-0.1,5.7-0.1,6.4-1.8
					c0.7-1.7,0.7-2.5,0.2-3.7c-0.4-1.1-0.9-0.8-2.1-1.9c-1.2-1.1,1.1-1.6-0.6-2.1c-1.8-0.5-3.1-0.3-3.4-1.1
					c-0.1-0.3-0.1-0.4,0.1-0.4c0.3-0.1,1.2,0.1,2.5,0.2c2,0.1,2.6,1.3,4.1,0.5c1.6-0.8,2.6-0.7,2.9-1.8c0,0,0-0.1,0-0.1
					c0.3-1.1-0.2-4-0.5-5.3c-0.3-1.3,0-3,0-3s1,0.4,0.9,1.6c-0.1,1.2,0.5,0.2,0.6-1.7c0.2-1.8-0.3-2.4,0.8-3.5
					c1.1-1.1,1.2-1.4-0.2-2.8c-1.4-1.3-3.4-2.5-2.6-3.6c0.7-1.1,1.9-3.1,2.5-3.8c0.6-0.7,2.7-3,4.1-2.9c1.5,0.1,4.7,0.1,4.8-0.2
					c0-0.3-1.4-1.3,0-1.4c1.5-0.1,1.3-0.7,1.3-0.7c-0.1-0.9-0.2-1.7-0.4-2.5c0,0,0.7-1.6,0.4-2.4c-0.3-0.7-0.4-1.5-0.8-2.5
					c-0.4-1,0.6-0.9,0.2-2.2c-0.4-1.4-2.4-6.8-3.2-8.8c-0.8-2,0.8-0.9,1.4-0.5c0.5,0.4-0.2-0.3,0.2-1.7c0.4-1.4-0.1-1.7,0.1-2.4
					c0.2-0.6,0.9-1.1,2-2.1c1.1-1,2-2.2,1.1-4.3C400.2,293.5,399.5,292.4,398.4,291.2z"/>
				<path class="st4" d="M376.3,395.3C376.2,395.2,376.4,395.5,376.3,395.3L376.3,395.3z"/>
				<path class="st4" d="M553.3,305.2c-1.4-1.8-1.2-0.8-1.2-0.8s-0.4,1.8-0.5,2.5c0,0.7-0.4,0.7-1.2,1.7c-0.7,1-1.2,1.4-1.9,2.4
					c-0.6,1-2.4,0.8-2.9,1.6c-0.5,0.8-2.2,1.4-2.9,2.3c-0.6,0.9-0.4,1.1-0.6,2.9c-0.1,1.8,0.2,1.9,0.8,3.4c0.6,1.5-0.7,0.9-1.6,2.6
					c-1,1.7-1.2,1.3-1.9,2.9c-0.7,1.6,0.2,1.7,0.7,2.2c0.4,0.5-0.1,1.4-0.4,2.7c-0.3,1.2-0.1,0.9,1.3,2.5c1.3,1.6,2.5-0.1,3.4-0.1
					c0.8,0,2-1.3,2-1.3c2-5.3,3.9-10.4,5.8-15.4c0-0.1,0.1-0.2,0.2-0.4c-0.2-1.5-0.2-2.4,0.9-2.4c1.2,0,0.4-1,0.4-1
					s-0.5-0.4-0.5-1.7c0-1.4,1.2,0.5,1.5,0.2c0.4-0.3,0.3-1.7,0.2-3.7C554.7,306.4,554.7,307,553.3,305.2z"/>
				<path class="st4" d="M287.9,168.4c0.8-0.4,4.1-1,2.9-0.4c-1.2,0.5-2,1.3-1.7,1.3c0.4,0,2-0.8,3.2-1.2c1.2-0.4,1.7-0.9,2.4-1.3
					c0.6-0.4,3-1.1,3-1.1c0.8-0.9,1.5-1.9,2.3-2.8c-0.8,0.2-1.6,0.4-2.4,0.6c0,0,0-1.2-0.6-1c-0.5,0.2-1.2,1.9-1.3,2.6
					c-0.1,0.8-2.5,0.8-2.5,0.8c0.4-0.3,0.9-0.6,1.3-0.9c-0.9,0-1.9,0.1-2.8,0.1c0.4-0.3,0.8-0.7,1.2-1c-0.1,0.1-1.2,1-1.5,0.8
					c-0.4-0.2,0.2-1.6,0.2-1.6s-1.2,0.9-2.1,1c-0.6,0.1-1.2,0.4-1.8,0.6c-0.5,0.8-1,1.5-1.5,2.3c0.1-0.1,0.2-0.1,0.2-0.2
					c0.6-0.4,1.8-0.3,1.1,0.2c-0.7,0.5-1,1-1.4,1.2C285.7,168.6,287,168.8,287.9,168.4z"/>
				<path class="st4" d="M286.4,171.9c0,0-1-1.3-1.4-1.4c-0.2-0.1-0.9,0.4-1.5,0.8c-0.9,1.5-1.7,3-2.6,4.5c1.9-1.4,4.4-2.7,4.6-2.7
					C285.9,172.7,286.2,172.3,286.4,171.9z"/>
				<path class="st4" d="M318.4,221c0.1,0,0.2-0.1,0.2-0.1S318.5,221,318.4,221z"/>
				<path class="st4" d="M587.4,237.3c-0.3,0.2-0.8,0.4-1.5,0.4c0.6,0.8,1.2,1.6,1.8,2.3C587.6,239.1,587.5,238.2,587.4,237.3z"/>
				<path class="st4" d="M301.8,276.1c-0.3-0.2-0.8-1-0.4-1c0.3,0,0.4,0,0.9,0.3c0.5,0.4,0.7,0.5,1.3,0.7c0.6,0.2,1.2,0.3,1-0.2
					c-0.2-0.5-0.3-0.8-0.1-1.8c0.2-0.9-0.3-1.9-0.2-2.3c0.1-0.5,0-1.2,0-1.2c-0.1-0.4-0.4-0.8-0.7-1.2c-0.3-0.4-0.6-0.7-0.6-0.7
					c0,0-0.6-0.5-2.4,0.1c-1.8,0.6-2,1.2-2.7,1.1c-0.1,0-0.2,0-0.3,0c-0.5,0-1,0.5-1,0.2c0-0.1,0.1-0.2,0.1-0.3
					c0.5-1,0.4-0.3,0.6-1.5c0.2-1.2-0.1-0.8,0.3-2.1c0.2-0.6,0.3-0.8,0.3-1c0-0.2,0-0.4-0.2-1c-0.3-1.1-0.2-1.4,0-2.1
					c0.3-0.6,0.9-2-0.8-1.5c-1.7,0.5-4.3,1.2-3.9,2.4c0.4,1.2,0.4,1.9-0.2,2.6c-0.5,0.7-0.7,1.1-0.5,1.3c0.2,0.2,0.2,0.9-0.7,0.4
					c-0.8-0.5-1.2,0.9-2.6,1.3c-1.3,0.4-0.8-0.8-1.7-0.6c-0.9,0.3-0.7,0.3-1.4-0.5c-0.7-0.8-1.6-0.9-2.1-2.4
					c-0.4-1.4-0.5-3.8-0.8-5.2c-0.2-1.4,0.3-1.5,0.2-2.1c0-0.1,0-0.3,0-0.5c0-0.5,0-1.1-0.2-1.7c-0.1-0.7-0.3-1.3,1-2.2
					c1.3-0.9,0.9-0.3,1.4-1.3c0.5-1.1-1-0.9,1.2-1.5c2.1-0.6,1.9-0.5,2.6-0.8c0.8-0.2,1.1-0.8,1.7-0.5c0.6,0.3,1.1,0.8,1.6,0.1
					c0.6-0.8,0.3-1.4,0.3-1.4s-1-0.8,1.6-0.9c2.5-0.2,2.1-1.7,2.9-0.8c0.8,0.8,1.2,1.3,1.7,0.6c0.4-0.6,0.2-1.5,1-0.8
					c0.8,0.7,1.9,0.7,1.8,1.2c-0.1,0.6,0,0.6,0.4,1.5c0.3,0.9,0.6,1.9,1.4,2.7c0.8,0.8,1.5,2.1,2,0.5c0.5-1.6,0.6-0.8,0-2.9
					c-0.6-2.1-1.3-3.7-1.4-3.9c-0.1-0.2-1.5-1.9,0.3-4.1c1.8-2.2,1.8-2.7,2.8-3.5c1-0.8,1-0.4,1.5-1.3c0.5-1,0.3-1.3,0.7-1.4
					c0.4-0.1,0.2-0.5,0.5-0.6c0.3-0.1,0.8-0.6,0.8-0.6c-0.1-0.3-0.1-0.6-0.2-0.9c-0.3,0.1-0.6,0.2-0.9,0.3c0.3-0.3,0.6-0.6,1-0.9
					c-0.1-0.3-0.2-0.5-0.4-0.8c0,0-1.1,0.3-0.8,0.1c0.3-0.2,1.1-0.6,0.9-1.1c-0.1-0.5-0.5-1.8-0.5-1.8s-0.4-2.9,0.3-0.7
					c0.7,2.2,0.5,3.2,1.2,1.6c0.7-1.7,0.3-2.3,0.3-2.3c0.3,0,0.5,0,0.8,0.1c0,0,1.2-2.1,1.1-3c-0.1-0.9-0.3-0.7,1.1-1.4
					c1.4-0.7,2-1.5,2.5-1.7c0.4-0.1,1.1-0.4,1.4-0.5c-0.2,0-0.6-0.1-0.2-1.6c0.5-2.1,1-2.8,1.9-3.3c0.9-0.6,1-1.5,1.9-1.8
					c0.3-0.1,0.5-0.2,0.8-0.3c0.5-0.2,1-0.4,0.9-0.7c-0.1-0.2,0.1-0.5,0.3-0.8c0.2-0.2,0.4-0.4,0.8-0.6c0.7-0.4,1.2-1.1,1.7-1.4
					c0.5-0.3-1.6,1.1-2.2,2.5c-0.5,1.4,0.4,2.9,1.2,1.5c0.8-1.4,0.6-1.4,1.6-1.7c1-0.3,1.7-1.3,2.3-1.5c0.7-0.3,2.1-1.6,2.4-1.7
					c0.3-0.1,1-0.8,1.7-1.9c0.7-1,0.2-1.3-0.6-0.9c-0.8,0.4,0.1-1.5-0.2-1.3c-0.3,0.1-1.2,1.1-1.1,1.7c0,0.6-0.7,0.8-0.9,1
					c-0.2,0.1-0.9,0.6-1.6,0.7c-0.7,0.1-1.9,0.3-2-0.3c0-0.5-0.2-1.5,0.2-1.9c0.5-0.5,0.5-0.5,0.8-1.2c0.3-0.7,1.6-2.6,0-2
					c-1.5,0.6-2,0.2-3.3,1.2c-1.2,1-2.1,2.2-2.7,2.4c-0.3,0.1-1,1.2-1.7,2.2c-0.4,0.6-0.7,1.1-1,1.4c-0.1,0.1-0.2,0.2-0.2,0.2
					c-0.5,0.3-0.9-0.1-0.9-0.1s0.4-0.6,1.1-1.3c0.7-0.7,0.8-1.5,1.6-2.2c0.8-0.7,0.7-0.9,1.2-1.3c0.5-0.4,1.2-1.1,1.2-1.1
					s0.7-0.5,0.9-0.9c0.3-0.3-0.1-1.1,0.5-1.3c0.6-0.2,2.8-1.2,3.7-1.5c0.9-0.3,2.5-1.2,3-1.3c0.5-0.1,1.8-0.7,2.2-0.9
					c0.4-0.1,0.6-0.3,1.5-1.4c0.9-1.1,0.6-1.4,2.9-2.5c2.2-1.1,2.8-1.3,2.9-2.5c0-1.2,0.2-1.7-0.2-2.1c-0.3-0.3-1.2,0.6-1.4-0.4
					c-0.2-1-0.9-0.4-1.7,0.4c-0.8,0.8-1.4,1.6-2.1,1.9c-0.7,0.3-1.9,0-0.6-0.8c1.3-0.8,1.6-1.1,2.4-1.7c0.9-0.6,0.6-0.6,1.4-1.1
					c0.8-0.5,0.8-0.6-0.5-0.5c-1.3,0.2-0.9,0.4-2.1,0.2c-1.2-0.2-2.3-0.2-2.2-1.1c0.1-0.9,0.4,0,0.6-1.6c0.2-1.6-1.9-6.4-1.9-6.5
					c0,0-0.9,2.4-2.2,3.7c-1.3,1.4-2.2,2.1-2.4,2.7c-0.2,0.6-0.6,1.2-1,0.3c-0.3-0.9-0.6-0.7-1-0.7c-0.3,0-2.4,0.8-0.3-1.5
					c2.2-2.3,1.1-1.4,0.9-2.1c-0.1-0.8-0.8-0.7-1.5-0.4c-0.7,0.3-1-0.2-1.3-0.9c-0.2-0.8-1.1-0.9-2.3-0.2c-1.2,0.7-1.9,1.5-2.5,1.4
					c-0.6-0.1-2.6-0.4-2.5,1.5c0.1,2-0.8,2.2-0.6,3c0.2,0.8,0.4,1.4-0.4,1.7c-0.7,0.3-2.6,2.3-1.3,3.2c1.3,0.8,1.4,0.9,1.3,1.9
					c-0.1,1-0.5,3.7-5.1,6.6c0,0-0.1,2.4,0.1,3.3c0.3,0.9,0.2,1-0.5,1.8c-0.7,0.7-0.4,1.3-1.2,1.6c-0.8,0.3-0.9,0.8-1.3-0.1
					c-0.4-0.9-0.6,0-0.7-1.2c-0.1-1.1-0.7-0.6,0.2-1.9c0.9-1.3-0.1-0.6,0.5-1.8c0.6-1.2,0.6-1.8,0.2-1.7c-0.4,0.1-3.5,1-3.5,1
					c0,0-0.6-1-1.7-0.6c-1.1,0.4-2.3-1.4-3.7-0.9c-1.4,0.5-2.5,1.1-2.5,1.1s0.8-1.7,0.5-2.7c-0.3-1-1.8-0.3-1.8-0.3
					c0,0.1,2.6-8,6.7-9.5c0.6-0.2,2-2.2,0.5-1.8c-1.5,0.4,0.9-0.9,1.7-1.3c0.8-0.4,0.4-0.4,1.5-0.9c1.1-0.4-0.5,0.7,1.4-0.9
					c1.9-1.7,2.3-1.9,2.2-2.4c-0.1-0.4-1.4,0.5-2.1,0.2c-0.8-0.3-1.1-0.4-1.1-0.4s1-0.4,1.6-0.5c0.6-0.1,1.2-0.3,1.6-0.5
					c0.5-0.3,0.4,0,0.6-0.9c0.1-0.9,0-1.1,0.8-1.4c0.8-0.3,0.9-0.7,1.8-0.7c0.9,0-0.1-0.3,1.3-0.5c1.3-0.2-0.1,0,1.7-1.2
					c1.7-1.3,2.6-1.4,2.3-2.2c-0.3-0.9-2.1,0-0.8-1.4c1.3-1.5,2-1.2,1.7-1.8c-0.3-0.6-1.7-0.8-2.1-0.7c-0.4,0.1-0.9-0.3-1.7,0.7
					c-0.8,1-0.7,2.1-1.1,2.7c-0.4,0.6-0.9,0.4-1.5,1.4c-0.5,1-1,1-1.6,1.6c-0.5,0.6,0,0.6-0.5,0.6c-0.5,0-1.3-0.6-0.3-1.1
					c1-0.5,2-0.9,1.1-1.8c-0.9-0.8-1.7-1.2-2.3-0.1c-0.6,1.1-1,1.8-1.2,1.5c-0.1-0.3-0.4-2.5-0.8-1.7c-0.3,0.8-1.5,1.3-2.2,2.1
					c-0.6,0.8-1.7,1.2-2.1,1.9c-0.4,0.7-0.9,1.4-1.2,1.9c-0.4,0.5-0.1,1.3-0.4,1.4c-0.3,0.1-0.6,1.2-0.9,0.1c-0.2-1.1-0.5-1.3-1.3-1
					c-0.7,0.3-1.8,0.6-2.1,0.8c-0.4,0.1-0.6,0.2-1.4,0.7c-0.8,0.5-2,1.2-2,1.2s-0.7-1.3-2.1-0.9c-1.4,0.5-2.2,0.6-2.7,1.2
					c-0.5,0.7-1,1.2-1,1.9c0,0.7,0.1,1.5-0.3,1.4c-0.4-0.2-0.3-0.6-0.9-1.2c-0.5-0.6-0.3-0.8-1.4-0.4c-1.2,0.4-4.6,2-4.6,2
					c0,0-0.6-0.3,0.7-1c1.4-0.7,1.6-2.4-0.6-1.8c-2.2,0.6-2.5,1.4-3.2,0.9c0,0-0.1,0-0.1,0c-10.3,21.3-16.2,45.1-16.3,70.3
					c0,0.4,0,0.7,0,1.1c0.6,0.4,0.6,1.1,1,2c0.4,1.1,0.6,2.4,1.2,2.7c0.6,0.4,1.4-0.1,1.5,0.5c0.2,0.6,1.3,1.2,1.8,1.4
					c0.5,0.2,0,0.2,0.4,1c0.5,0.8,0.9,0.1,1.8,1.1c0.9,1,3.4,1.5,3.8,3c0.4,1.5,0.5,1.6,0.3,2.4c-0.2,0.8-0.8,1.4,0,1.8
					c0.8,0.4,3.2,1.8,3.9,1.7c0.7-0.2,2-0.3,2-0.3s2.7,0.9,3.8,1.2c1.1,0.2,0.7,0.4,1.8,0.3c1.2-0.1,2.8,0.5,3-0.2
					c0.2-0.7,0.7-1.5,1.5-1.5c0.7,0,2.5,1.5,2.9,1.7c0.1,0,0.3,0.1,0.5,0.2c0.5,0.2,1.2,0.4,2,0.5c0.6,0.1,1.2,0.1,1.6,0
					c1.3-0.4,0.8,0.1,2.1-0.2c0.3-0.1,0.5-0.1,0.6,0c0.1,0,0.1,0.1,0.2,0.2c0.2,0.3,0.1,0.9,0.6,1.1c0.8,0.3,1.9,0.9,2.2,1
					c0,0,0.1,0.1,0.1,0.1C301.6,276.4,302,276.3,301.8,276.1z"/>
				<path class="st4" d="M587.3,236.5c-4.1-37.2-20.7-70.6-45.5-96c-0.6,0.3-1.1,1.2-1.1,1.2c-0.9-0.2-1.9-0.3-2.8-0.5
					c-0.2,0.3-0.4,0.6-0.7,0.9c-0.7,0-1.4,0.1-2.1,0.1c0,0,0.7-0.6,0.7-1.5c0-0.9-1.4-0.5-1.8-0.3c-0.4,0.1-1.3,0.7-1.3,0.7
					s-1.2,0.1-1.9,0.6c-0.7,0.4-1.8,1.9-1.8,1.9c-0.1,0.4-0.2,0.8-0.4,1.3c0,0-2.5,0.2-3.2-0.4c-0.7-0.6-1.5-1.6,0.2-1.6
					c1.7,0.1-0.4-1.8-2-1.8c-1.5,0-1.9,0-1.4,1.7c0.4,1.7,2,2.5,2.1,3.4c0.1,0.9-0.6,0.3-0.6,0.3s-0.7-0.9-1.6-0.9
					c-0.9,0-3.1,1.2-3.4,1.9c-0.3,0.7,1.6,1.9,1,2.1c-0.6,0.3-2.8-0.1-3.9-1c-1.1-0.9-2.7,0.3-0.6,1.4c2.1,1.1,1.5,2.3,0.5,1.4
					c-1-0.9-1.8-1.5-2.3-1.5c-0.5,0-1.5-0.2-1.5-0.2s0.3-0.5-0.5-1.5c-0.9-1-0.5-1.9-0.5-1.9s-1.4-0.3-2.5-1.2
					c-1.1-0.9,0.3-0.4,0.8-0.4c0.5,0,2.9,1.2,5.1,1.5c2.2,0.2,5.1-0.3,5-1.6c-0.1-1.3-1.3-2.6-2.8-2.8c-1.5-0.2-2.4-0.2-3.6-1.4
					c-1.1-1.2-3.1-1.6-4.9-1.6c-1.8-0.1-2.2-0.4-2.8-0.8c-0.6-0.4-2.9,0.4-2.9,0.4s-1.2-1.3-0.7-1.3c0.5,0,0.5,0,0.5,0
					s-0.7-0.1-1.2-0.6c-0.6-0.4-2-0.8-2-0.8c-0.1,0.2-0.1,0.5-0.2,0.7c-0.1-0.5-0.2-1.1-0.3-1.6c-0.4,0.3-0.8,0.6-1.2,0.9
					c-0.3,0.4-0.7,0.8-1,1.3c0-0.5,0-1,0-1.5c-0.4,0.4-0.8,0.8-1.3,1.3c0.1-0.6,0.2-1.3,0.3-1.9c0,0-0.7-0.3-1.8,0.1
					c-1.1,0.4-1.5,1.1-1.5,1.6c0,0.4-0.8,0-1.2,0c-0.4,0-1.5,0.2-1.5,0.2s-0.1,0.3-1.1,0.3c-1,0-1.8-0.8-1.7,0
					c0.1,0.7-1.2,0.9-1.6,1.1c-0.4,0.1-0.5,1.7-0.5,1.7s-1.9,0.3-2.3,0.1c-0.4-0.3-0.9,0.4-0.9,1.4c0,1-0.8,1.1-1.2,1.2
					c-0.4,0.1-1.4,1.3-1.4,1.3c-0.1,0.5-0.2,1-0.3,1.5c0,0-0.2,1.5-0.7,1.6c-0.5,0.1-1.4,1.6-2.1,1.5c-0.7,0-0.9,1.6-1.4,1.6
					c-0.5,0-0.8,0-1.2,0c-0.4,0-2.4-0.1-2.4-0.1s-0.1,1.7-0.5,2c-0.4,0.3-0.6,0.2-1.5,0.6c-0.9,0.4-1.6,0.3-1.5,0.7
					c0.1,0.4,0.7,1.2,0.7,1.2c0.9,0.1,1.7,0.2,2.6,0.3c-1.1,0-2.1,0.1-3.2,0.1c0.2,0.7,0.3,1.5,0.5,2.3c0.7-0.3,1.4-0.5,2.1-0.8
					c-0.5,0.7-1,1.5-1.5,2.2c0.4,0.6,0.8,1.3,1.3,1.9c0,0,0,1.1,2.5,0.8c2.5-0.2,2.8-1.3,3.4-1.4c0.5-0.1,1.2-2.3,1.5-1.3
					c0.2,1,0.2,1.1,1.2,1.1c0.1,0,0.3,0,0.4,0c1.3,0.1-1.7,0.7-0.1,1.5c1.5,0.7,1.1,0.7,2,2.6c0.8,1.9,0.5,2.1,0.5,2.7
					c0,0.5,0.6,1.3,1.4,1.4c0.8,0,1.2-0.2,1.2-0.7c0.1-0.5,1.1-0.5,2.1-0.4c0.9,0.1,1.8-0.2,1.5-1.9c-0.3-1.7-0.1-3.3-0.1-3.3
					s3.4-1,2.8-2.5c-0.6-1.5-2.7-1.1-3.4-4c-0.7-2.9,1.9-3,3.3-4.1c1.4-1,2.4-2,2.4-2s-1.5-0.5-0.8-1c0.7-0.5,0.8-1.2,1.4-1.2
					c0.6,0,1.9-0.3,2.3-0.3c0.1,0,0.3,0,0.6,0.1c0.9,0.1,2.4,0.4,2.1,0.9c-0.4,0.7-0.1,1.3-0.5,1.2c-0.4,0-3.1,2.5-3.2,2.5
					c0,0-2,0.7-1.4,2.4c0.6,1.7,1.2,3.6,1.2,3.6s0.1,0.5,0.9,0.7c0.8,0.2,1.4,1,2,1.1c0.7,0,1.9,0.1,2.3,0.1c0.4,0,1.7-0.2,2-0.2
					c0.4,0,0.9,0.2,1.3,0.1c0.4-0.1,0.9-0.9,0.9-0.9c0.1,0,0.3,0,0.5,0c0.3,0,0.6,0,0.9,0c0.5,0.1,0.9,0.3,1.4,0.5
					c-0.5,0.3-0.9,0.6-1.4,0.9c-0.2,0.2-0.5,0.3-0.7,0.5c-1.6,0-3.2-0.1-4.7-0.1c0,0-3.3,1.4-1.1,2.7c0.4,0.2,0.7,0.5,1,0.7
					c1.2,1.1,1.1,2.2,0.2,2.3c-1,0.1-1.4-0.7-1.4-0.7s-1.4-2.1-3-1.5c-1.6,0.6-1.5,0.7-0.4,2.1c1,1.4,0.1,0.9,0.5,1.5
					c0.5,0.5-0.4,1,0.3,1.6c0.3,0.2-0.1,0.5-0.6,0.6c-0.6,0.3-1.2,0.5-0.5,0.7c1.2,0.5-2.7,0.4-2.7,0.4c-0.4-0.4-0.8-0.7-1.1-1.1
					c0,0-1.9,0.4-2.9,0.7c-1,0.3-3.1,0.9-3.1,0.9c-0.2,0-0.3-0.1-0.5-0.2c-0.3-0.1-0.7-0.2-1-0.3c0,0-1.4-1.1-1.8-0.8
					c-0.4,0.4-1.4,0.6-1.9,0.5c-0.5,0-1.4-0.3-1.8-0.7c-0.4-0.4-1.5,0-1.3-1.3c0.1-1.3,0.3-1,1.3-1.6c1-0.6,1.3-0.6,0.8-1.1
					c-0.4-0.5-1.6,0-1.3-0.9c0.3-0.9,1-1.8,0.3-1.8c-0.7-0.1-1.3,0-1.8,0.5c-0.5,0.5-1,0.9-1,0.9s-1.6,0-1.6,0.6
					c0.1,0.5,0,1.3,0.2,1.8c0.2,0.5,1.7,2.2,1.7,2.2s-0.2,1.7-0.8,1.6c-0.5,0,0.2,0.1-2.2,0.8c-0.1,0-0.2,0.1-0.4,0.1
					c-2.9,0.7-3.2-0.5-4,1.2c-0.8,1.6,0,1.9-2,2.2c-0.1,0-0.2,0-0.3,0c-1.7,0.3-1.1,0.7-1.5,1c-0.2,0.2-1,0.3-1.5,0.5
					c0.1-0.1,0.1-0.3-0.3-0.5c-1.3-0.8-2.1,0.3-1.3-0.8c0.8-1.1,1.2-0.7,1.6-1.6c0.3-0.9,0.7-1-0.1-1.4c-0.8-0.3-1.8,0.7-2.6,0.1
					c-0.8-0.6,0.3-0.3-0.2-1.6c-0.5-1.3,0.1-1.4-1-2.3c-1.1-0.9-1.6-0.4-1.6-0.4s0.8-1.9-1.1-2.6c-1.9-0.7-2.7-0.3-2.7-0.3
					s0.1-0.2,1.8-0.9c1.7-0.7,1.7-2,1.7-2s-2-0.6-2.8-0.7c-0.8-0.1-1.5,0.8-1.6,0.5c-0.1-0.3,0.1-1.1,0.8-1.4
					c0.7-0.3,1.4-0.9,1.4-0.9c-1.1-0.2-2.3-0.4-3.5-0.5c0,0-0.7,1.1-1.5,1.9c-0.9,0.7-1.1,1.2-1,1.9c0,0.7,1.7,1,1.7,1s-1.3,1-0.8,1
					c0.5,0,2.5,0,1.9,0.1c-0.6,0.1-1.5,0.6-1.5,0.6c0.4,0,0.8,0.1,1.3,0.1c0,0-1.7,1.2-1.3,1.2c0.4,0,2.4-0.2,2.4-0.2s0.9-0.4,1,0.7
					c0.1,1.1,0.8,2,0.8,2s1.6,0.4-0.2,1.1c-1.9,0.7-1.8,0.8-2.3,0.7c-0.5,0,1.4,1.4,0.7,1.6c-0.6,0.3-2.2-0.2-2.3,0.1
					c-0.1,0.4,0.8,1,1.5,1.1c0.6,0.1,2.1,1.3,3.1-0.1c0,0-0.5,1.5-2,1.3c-1.4-0.2-2.8,0.3-2.9,2c0,0,1-0.4,2.8-0.3
					c1.8,0.1,1.6-0.2,2.7-0.1c1.1,0.1,1.2,0,2.3,0.1c1.2,0.1,2.4,0.1,3.2,0c0.4,0,1.2-0.1,1.7-0.2c-0.2,0.1-0.2,0.2-0.2,0.3
					c0,0.6,0,1.7-0.7,1.6c-0.7,0-0.9,1-0.9,1s-1.7,0.5-2.7-0.4c-1-1-1.2-0.7-0.8,0.3c0.4,1,0.8,1.3-0.2,1.3c-1-0.1-2,0-2,0
					s-2.2-0.5-2.9-0.5c-0.7,0.1-0.6,1.5-0.6,2c0,0.5,1-0.7,2.6,0.7c1.7,1.4,2.9,2.5,3,2.8c0.2,0.4,0.5,1.3,0.6,2.3
					c0.1,1,0.6,3.7-0.2,3.6c-0.3,0-0.7,0-1,0.1c-0.7,0.1-1.2,0.4-1.2,0.4c-3.5-0.6-7.1-1.2-10.7-1.8c0,0-4.6,0.4-2.9,2.6
					c0,0,0.1,0.3,0.1,0.7c0.1,0.6,0.2,1.5,0.3,2.7c0.1,2-1.3,2.6-1.7,3.2c-0.4,0.6-1,1.8-0.2,1.9c0.8,0.1,1,3.2,1,3.2
					s-0.3,0.4,1.5,0.5c1.6,0.1,1.3,0.4,1.7,0.2c0,0,0.1,0,0.2-0.1c0.6-0.3,2.1-0.5,2.6,0.9c0.5,1.4,0.7,1.6,1.6,1.6
					c0.9-0.1,0.2-1.4,1.8-1.3c1.5,0.1,1.8-0.3,3.4-0.2c1.6,0.1,2.7,0.2,2.7,0.2s1-1.4,1.7-1.3c0.8,0.2,0.8-2.2,1.8-2.2
					c1,0.1-0.8-2.4,0.7-3.4c1.5-1,1.7-2.3,2.9-2.2c1.1,0.1,2.2-0.4,2.2-0.4c0.3-0.9,0.5-1.7,0.7-2.6c0,0-0.5-1.8,1.3-1.7
					c1.8,0.1,3.7,1.5,5,1.3c1.2-0.2,1.6-0.9,2.1-1.5c0.1-0.1,0.2-0.2,0.2-0.3c0.2-0.6,0-1.2,2-0.7c2.4,0.6,3.2,0.7,3.3,2.2
					c0.1,1.5-0.1,1,1.5,2.2c1.6,1.2,2.7,2.3,4,2.7c1.2,0.4,2.4-0.1,3.9,2.2c1.5,2.3,3.1,3,1.9,3.1c-1.2,0.2,0.4,1.1-1.8,1
					c-2.1-0.1-2.1,0.1-3.5,0.1c-1.3-0.1-1.8,0.5-1.4,1c0.4,0.5,4.9,2.3,4.8,2.3c0.3-0.7,0.5-1.4,0.8-2.1c0,0,1.5-0.1,1.9-0.9
					c0.5-0.8,0.8-1.6,1.6-1.5c0.8,0-0.9-1.7-1.5-2.2c-0.6-0.4,0.5-1.8,1.9-0.1c1.4,1.7,2.9,0.5,0.3-1.3c-2.6-1.8-3.5-1.7-3.9-1.9
					c-0.4-0.3-0.6-1.1-0.6-1.1c-0.7-0.2-1.4-0.5-2-0.7c-0.3-0.5-0.5-0.9-0.8-1.4c0,0-0.2-0.6-1.6-1.6c-1.4-0.9-2.1-1.6-2.1-1.6
					s-0.8-2.3,0.4-2.2c0.8,0,0.9-0.4,1.3-0.3c0.2,0.1,0.4,0.3,0.7,0.6c1.2,1.3,1.9,1.9,2.3,2.1c0.4,0.3,1,1.6,2.1,2
					c1.1,0.4,1.4,1.1,1.9,1.2c0.5,0.2,1.6,0.2,1.6,0.2c0.1,0,0.1,0.1,0.2,0.2c0.9,0.6,1.7,1.3,2.6,2c0,0,0.1,2.5,0.3,2.8
					c0.3,0.4,1,2.5,1.7,2.4c0.1,0,0.3,0,0.4,0c0.4,0.1,0.5,0.4,0.8,1c0.3,0.7,0.5,2.1,0.5,2.1c0.3,0.5,0.7,0.9,1,1.4
					c0,0,1,0.7,1.5,0.8c0.5,0.1,2.1,0.3,2.1,0.3c-0.1-0.4-0.1-0.8-0.2-1.2c0.2,0,0.4-0.1,0.6-0.1c-0.4-0.4-0.7-0.8-1.1-1.2
					c0.6,0.3,1.2,0.5,1.7,0.8c0.2-0.2,0.5-0.5,0.7-0.7c-0.7-0.7-1.4-1.4-2.1-2.1c-0.4-0.6-0.7-1.2-1.1-1.7c0,0-0.4-1.5,0.3-0.6
					c0.7,0.9,0.8,0.5,1.4-0.2c0.6-0.7-0.7-0.5,0.6-0.7c1.1-0.2,1.5-0.7,2-0.3c0,0.1,0.1,0.1,0.1,0.2c0.5,0.5,1.7,0.9,2,1
					c0.1,0,0.1,0,0.1,0s0,0-0.1,0c-0.1,0-0.1,0.3-0.1,1.2c0.1,1.6,0.4,2.3,0.7,2.9c0.3,0.6,0.9,1.7,1.5,1.7c0.6,0,1.1,0.2,1.4,0.8
					c0.3,0.6,0.8,1.7,0.8,1.7c0.8,0.1,1.6,0.2,2.4,0.3c0,0,0.8,0.5,1.1,0.2c0.3-0.3,0.8-0.9,0.8-0.9s1-0.7,2.1,0.3
					c1.2,1,1,1.1,2.5,1c1.5-0.1,0.8-1.5,1.7-1.2c0.9,0.3,2.1,0.3,2.7,0.3c0.3,0,0.5,0.1,0.6,0.2c0.1,0.1,0.1,0.3,0.1,0.6
					c0,0.7,0.3,3.3,0.2,3.9c-0.1,0.5-0.1,1.1-0.5,1.5c0,0-0.1,0.1-0.1,0.1c-0.6,0.5-1.3,0.7-1.3,1.6c0,0.9,0.2,1.5,0.2,2.3
					c0,0.5,0.2,2.5,0.6,4.4c0.2,1,0.5,2,0.9,2.6c1.1,1.7,0.6,0.7,2.5,3c1.9,2.3,1.2,3.3,2.4,4.5c1.2,1.1,2.1,0.5,2.9,3.2
					c0,0-0.4,3.5,1.1,4.6c1.5,1.1,2.1,0.7,3.1,2.8c1,2.1,2.1,2.3,2.9,3.2c0.3,0.4,0.5,0.6,0.6,0.9c0.1,0.3,0.1,0.7,0.1,1.2
					c0,1-0.2,1.8,0,3.2c0.3,1.4,0.3,2,0.8,2.7c0.6,0.7,0.5,1.2,2.2,0.6c1.7-0.6,0.4-1.2,2.3-1.2c2,0,4.4-0.9,4.4-0.9
					s0.1-1.5,1.6-1.5c1.5,0,1.6-0.8,2.7-1.3c1.1-0.5,1.9-0.5,2-1.3c0.1-0.8,0.7-1.6,1-1.6c0.1,0,0.1,0,0.1,0c0.3,0,0.4,0,1.2,0
					c0.9,0,1.7,0,2.2-0.1c0.6-0.1-1.1-1.7,0.3-1.7c1.5,0,1.9,0.2,2-0.8c0.1-1,1.6-1.4,1.6-1.4s0-0.9,0-1.2c0-0.3-0.7-1.6,0.3-1.6
					c1,0,0.4,0,1.8-1.1c1.3-1.1,1.2-2.4,0.9-2.9c-0.3-0.5-0.3-0.4-0.8-0.9c-0.4-0.4-1-1.4-1.3-1.4c-0.3,0-1.3,0.1-1.9-0.3
					c-0.6-0.5-1.3-0.9-1.7-1.6c-0.1-0.1-0.2-0.3-0.2-0.6c-0.2-0.8-0.3-1.9-0.3-1.9s-2.3,3-3.2,3.4c-0.9,0.4-3.1,0.1-3.7,0.4
					c-0.1,0-0.2,0-0.4,0c-0.8-0.3-2.3-1.9-3-3.1c-0.8-1.5,0.2-1.3-1.1-2.6c-0.9-0.9-2-2.1-2.6-3.1c-0.3-0.4-0.4-0.8-0.4-1
					c0-0.8,1.9-3.6,2.9-1.9c1,1.7,2,3.8,4.3,4.6c0,0,1.1,1.8,2.8,2.2c1.7,0.3,3.7-1.6,4.4-1c0.7,0.7,0.6,2.7,2.7,3
					c2.1,0.3,3.8,1.1,4.9,1.1c0.4,0,0.8,0,1.2-0.1c0.8-0.1,1.9-0.2,4-0.1c3.2,0.1,3.4-1,4.1,0.2c0.7,1.2,0.3,2.2,2.3,2.2
					c0.3,0,0.5,0.1,0.7,0.1C585.2,235.4,584.9,236.8,587.3,236.5z M500.9,177c0.1,0.1,0.1,0.2,0.2,0.3c0,0,0,0.1,0,0.1
					C501.1,177.2,501,177.1,500.9,177z M506.4,166.8C506.3,166.8,506.3,166.8,506.4,166.8C506.3,166.8,506.3,166.8,506.4,166.8
					C506.4,166.8,506.4,166.8,506.4,166.8z M558.6,243.9c0,0,0,0.1-0.1,0.1l0,0C558.5,244,558.6,243.9,558.6,243.9z M578.5,208.6
					c0.2,0,0.4,0,0.6,0c0,0,0,0,0.1,0C579,208.6,578.7,208.6,578.5,208.6z"/>
				<path class="st4" d="M476.6,196.6c1,0.1,1.2-0.7,1.1-1.5c-0.1-0.8-1.7-1.4-1.9-0.8C475.9,194.3,475.6,196.6,476.6,196.6z"/>
				<path class="st4" d="M265.2,265.5c-1-0.3-1.1-1.8-1.7-3.1c-0.5-1.3-1.6-1.2-2.1-2.3c-0.2-0.4-0.4-0.8-0.6-1.1
					c0.1,1.2,0.1,2.3,0.2,3.4c0.2,0.1,0.3,0.1,0.5,0.4c0.5,0.8,0.5,0.8,0.6,1.2c0.2,0.4,0.3,1.5,0.3,1.5c0.9,0.4,1.8,0.8,2.7,1.2
					c0,0,1.5,2.1,1.6,0.8C266.8,266.2,266.2,265.7,265.2,265.5z"/>
				<path class="st4" d="M313.1,158.2c-0.6,0.4,0.2,2.2,0.5,2.1c0.3-0.1,1.3-0.6,2.4-1c1-0.4,2-0.8,3.2-1.3c1.1-0.5,2.1-0.7,2.9-1
					c0.8-0.3,1.4-1.1,3.1-2.1c1.7-1,1.6-2.5,1.6-2.5s-3,1.1-3.3,1.3c-0.3,0.1-3.3,1.8-6.7,3.2c-3.4,1.4,0.8-1.7,0.8-1.7
					c0,0,3.7-1.9,4.1-2c0.3-0.1,2.6-1.4,2.6-1.4c1.4-0.5,2.8-1.1,4.3-1.6c0,0,1.5-0.6,1.1-0.9c-0.4-0.3-1-1.2,0.3-1.7
					c1.2-0.5,2.3-1.3,2.3-1.3c0.1-0.3,0.3-0.6,0.4-1c0,0,3.7-2,4.1-2.4c0.3-0.3-1.5,0.6-2.1,0.9c-0.6,0.3,0.2-2.2,0.9-2.8
					c0.7-0.6,4.8-2,5.9-2.5c1.1-0.5,2-0.8,2.8-1.4c0.8-0.5,1.6-2.7,2.6-3.1c1-0.4,2.8-1.8,3.8-2.4c1-0.6,3.6-2.3,3.6-2.3
					c0.8-0.5,1.6-1,2.4-1.5c0,0-1.5-0.9-3.3-0.3c-1.8,0.6-2.2,0.9-3.6,1.5c-1.4,0.6-1.8,0.7-3.5,1.5c-1.8,0.7-2.6,1.1-4.7,1.9
					c-2,0.9-1.6,0.7-4.7,2c-3.1,1.3-2.8,1.3-5.9,3.5c-3,2.1-4.4,2.2-5.7,2.8c-1.3,0.6-1.7,1.9-1.7,1.9c0.1,0.4,0.1,0.9,0.2,1.4
					c0.1,0.3,0.2,0.7,0.4,1c0,0-1,0.4-1.4,0.1c-0.4-0.3-1.5,0-1.5,0s-0.9,0.7-1.4,0.9c-0.5,0.2-2.1,0.9-2.8,1.2
					c-0.7,0.3-1.5,2.4-1.5,2.4c0.1,0.5,0.3,1.1,0.4,1.6c0,0,1.2,0.8,1.7,0.6c0.4-0.2,1.6-0.7,2.3-1.1c0.7-0.4,2.2-1.2,2.5-1.4
					c0.3-0.1,1.5,0.2,1.5,0.2s0,0.8-0.3,0.9c-0.3,0.2-1-0.1-1-0.1s-1.2,0.5-1.6,0.7c-0.5,0.2-1,1.4-1.7,1.7
					c-0.7,0.3-1.4,0.6-1.8,0.8c-0.4,0.2-0.8,1-1.6,1.3c-0.8,0.3-2.5,0.4-3.4,0.3c-0.9-0.1-1.3,2.1-1.3,2.1c0.8-0.3,1.5-0.6,2.2-0.9
					C313.5,156,313.8,157.8,313.1,158.2z"/>
				<path class="st4" d="M475.7,199.1c0.1,1,0.1,2,0.2,3c0.3,0,0.7,0,1,0.1c0.1-0.2,0.3-0.5,0.4-0.7c0.3,0,0.6-0.1,0.9-0.1
					c0,0,0.4-2.8,0.2-3.1c0,0-0.5-0.6-0.8-0.9c-0.2-0.3-0.9,0.1-0.9,0.1c-0.2,0.1-0.5,0.2-0.8,0.3c-0.3,0.1-0.5,0.3-0.8,0.4
					C475.4,198.4,475.6,198.7,475.7,199.1z"/>
				<path class="st4" d="M282.5,181.5c0.1,0.4,0.3,0.8,0.4,1.1c0,0,0.8-0.4,2.9-1c2.1-0.6,3.8-2.3,4.2-2.9c0.4-0.6,0.5,0.3,2.3,0.4
					c1.8,0.1,1.4-0.5,3.1-1.1c1.8-0.6-0.1-1.1,0.2-1.2c0.3-0.1,2-0.7,2.7-1.6c0.7-0.8-2.9,0.3-2.9-1.6c0-1.9,1.8-5.1,1.8-5.1
					c0.4-0.2,0.5-0.8,0.5-0.8c-0.8,0.3-1.6,0.6-2.4,0.9c0.1,0.6,0.2,1.3,0.3,1.9c0,0-0.5-0.7-1.4-0.7c-0.9,0-2.2,1.8-1.9,3.3
					c0,0.1,0,0.1,0,0.1c-0.2-0.4-0.5-1-0.9-0.5c-0.5,0.5,0-1.2-0.2-0.5c-0.3,0.7-1.4,0.8-2.4,0.5c-1-0.3-1,0.3-2.4,0.6
					c-1.4,0.3-1.7,0.7-3,1.1c-1.4,0.4-1.7,0.7-2,1.8c-0.4,1.1,1.6,1.1,0.5,1.4c-1,0.3-1.8,1-1.3,1c0.5,0,5.2-0.6,5.2-0.6
					s-1.3,0.4-2.9,0.9c-1.6,0.5-3.3,1-3.2,2.4C279.9,182.8,282.5,181.5,282.5,181.5z"/>
				<path class="st4" d="M441.5,172.8c1.3,0.5,1.3,0,2.6-0.4c1.3-0.4,1.2-0.4,3-0.6c1.8-0.2,0.5-2.8,0.9-3.1c0,0,0.9,0.6-0.3-0.4
					c-1.1-1-1.8-1.2,0.8-1c2.6,0.2,0-1.1-0.6-1.5c-0.7-0.4-1-0.2-2.7-0.3c-1.7-0.1-1,1.7-1,1.7s-0.6,0.4-1.9-0.4
					c-1.2-0.8-1.5-0.2-1.7,1.3c-0.1,1.5,0.4,1,1.4,1.1c1,0.1-0.1,0.7-0.9,0.8c-0.9,0.1-1.4,1-1.3,1.6
					C439.8,172.2,440.2,172.3,441.5,172.8z"/>
				<path class="st4" d="M475,120.6c1.2,0,1.6-1.2,2.7-1.2c1.1,0,0,1.2,0,1.2c-2.9,0.7-3,0.4-0.8,2c2.2,1.6,1.7,0,3.2,0.7
					c1.5,0.7,0.7,0,1.6-1.9c0.9-1.9,0.5-1.5,2.1-1.7c1.6-0.2,1.4,1.4,2.2,1.7c0,0,1.6,0.7,3.2,0.7c1.6,0,1.9-0.6,1.2-0.7
					c-0.7,0-1.9,0-3.3-1.4c-1.3-1.4-5-2.1-5-2.1s1.1,0,1.6,0.3c0.5,0.2,2.6,0.5,4,0.5c1.4,0,1.6-0.1,3.4-0.8
					c1.8-0.7,0.8-1.6,0.8-1.6s-3,0-4.4,0c-1.5,0-2.7,0-4.5,0c-1.8,0-2.3,0.6-5,0.6c-2.7,0-3.1,0-4.4,0c-1.4,0-1.3,1-1.2,2.3
					C472.3,120.6,473.8,120.6,475,120.6z"/>
			</g>
		</g>
	</g>
</g>
<g id="Layer_3">
	<g>
		<path class="st5" d="M572.7,264.5c6.3,2.7,13.3-1.2,18.9-5.1c5.6-4,12-8.4,18.6-6.7c4,1,7.2,4.1,11.2,5.1c7.2,1.9,14.6-3.3,22-2.7
			c7.8,0.6,13.6,7.4,21,10c5.1,1.8,10.6,1.6,16,1.7c5.4,0.1,11.1,0.7,15.4,3.8c4.4,3.1,6.8,9.6,3.9,14.1c-1.1,1.7-2.8,2.9-4.5,3.9
			c-12.6,6.9-28.2,0.9-42.6,1.8c-13.7,0.8-27,7.9-40.6,5.9c-9.1-1.4-17.3-6.8-26.5-8c-8-1-16.1,1.3-24.2,2.2
			c-8.1,0.8-17.2-0.4-22.4-6.6c-2.1-2.6-3.4-6.3-2.2-9.4c1.6-4,6.4-5.6,10.6-6.7c4.7-1.2,9.4-2.5,14.1-3.7c3.7-1,9.2-0.6,9.3,3.2"/>
	</g>
	<g>
		<path class="st5" d="M525.4,302.8c3.3,1.4,6.9-0.6,9.8-2.7c2.9-2.1,6.3-4.4,9.7-3.5c2.1,0.5,3.7,2.1,5.8,2.7
			c3.8,1,7.6-1.7,11.5-1.4c4.1,0.3,7.1,3.9,10.9,5.2c2.6,0.9,5.5,0.8,8.3,0.9c2.8,0.1,5.8,0.3,8,2c2.3,1.6,3.6,5,2,7.3
			c-0.6,0.9-1.4,1.5-2.4,2c-6.6,3.6-14.7,0.5-22.2,0.9c-7.2,0.4-14.1,4.1-21.2,3c-4.8-0.7-9-3.5-13.8-4.1c-4.2-0.5-8.4,0.7-12.6,1.1
			c-4.2,0.4-9-0.2-11.7-3.4c-1.1-1.4-1.8-3.3-1.1-4.9c0.8-2.1,3.3-2.9,5.5-3.5c2.4-0.6,4.9-1.3,7.3-1.9c1.9-0.5,4.8-0.3,4.8,1.7"/>
	</g>
	<g>
		<path class="st5" d="M436.5,396.6c3.3,1.4,6.9-0.6,9.8-2.7c2.9-2.1,6.3-4.4,9.7-3.5c2.1,0.5,3.7,2.1,5.8,2.7
			c3.8,1,7.6-1.7,11.5-1.4c4.1,0.3,7.1,3.9,10.9,5.2c2.6,0.9,5.5,0.8,8.3,0.9c2.8,0.1,5.8,0.3,8,2c2.3,1.6,3.6,5,2,7.3
			c-0.6,0.9-1.4,1.5-2.4,2c-6.6,3.6-14.7,0.5-22.2,0.9c-7.2,0.4-14.1,4.1-21.2,3c-4.8-0.7-9-3.5-13.8-4.1c-4.2-0.5-8.4,0.7-12.6,1.1
			c-4.2,0.4-9-0.2-11.7-3.4c-1.1-1.4-1.8-3.3-1.1-4.9c0.8-2.1,3.3-2.9,5.5-3.5c2.4-0.6,4.9-1.3,7.3-1.9c1.9-0.5,4.8-0.3,4.8,1.7"/>
	</g>
	<g>
		<path class="st5" d="M185.7,300.2c12.8,4.4,26.8-6.3,40-3.1c3.5,0.8,6.7,2.6,10.1,3.5c15.9,4.4,34-9.2,48.6-1.6
			c4.1,2.1,7.5,5.9,12.1,6.5c5.7,0.8,10.9-3.4,16.5-4.9c11.5-3.1,22.6,5.7,31.3,13.7c-9.6,0.6-19.1,1.1-28.7,1.7
			c-6.4,0.4-12.9,0.8-18.9,2.8c-5.4,1.8-10.2,4.9-15.4,7.1c-10.2,4.5-21.8,5.8-32.8,3.9c-7.7-1.4-15.1-4.4-22.9-5.3
			c-8.4-1-16.8,0.4-25.3,0.1c-18.1-0.6-34.9-8.9-50.9-17.5c2.4-3.4,7.1-3.7,11.3-3.6c10.1,0.1,20.3,0.2,30.4,0.2"/>
	</g>
	<g>
		<path class="st5" d="M518.4,155c7.7,2.6,16-3.7,23.9-1.9c2.1,0.5,4,1.6,6,2.1c9.5,2.6,20.3-5.5,29.1-0.9c2.5,1.3,4.5,3.5,7.3,3.9
			c3.4,0.5,6.5-2,9.9-2.9c6.9-1.8,13.5,3.4,18.7,8.2c-5.7,0.3-11.4,0.7-17.2,1c-3.8,0.2-7.7,0.5-11.3,1.7c-3.2,1.1-6.1,2.9-9.2,4.3
			c-6.1,2.7-13,3.5-19.6,2.3c-4.6-0.8-9-2.6-13.7-3.2c-5-0.6-10.1,0.2-15.1,0.1c-10.8-0.4-20.9-5.3-30.4-10.5c1.4-2,4.3-2.2,6.7-2.2
			c6.1,0,12.1,0.1,18.2,0.1"/>
	</g>
	<g>
		<path class="st5" d="M205,351c17.4,5.9,36-9,54-5.3c8.3,1.7,15.4,7.3,23.7,9.2c15.9,3.8,31.6-6.2,47.9-7.8
			c15.3-1.5,30.2,4.5,45.5,5.6c14.7,1,29.3-2.6,43.9-2.5c14.7,0.1,30.9,5.2,37.8,18.2c-11,9.9-27.6,13.2-41.5,8.2
			c-4.7-1.7-9.1-4.3-13.9-5.8c-5.5-1.8-11.4-2.1-17.1-2c-14.8,0.2-29.5,2.8-43.4,7.7c-7.6,2.7-15.1,6-23,6.4
			c-10.4,0.5-20.2-4-30.1-7.2c-28.2-8.9-58.6-6.4-88.2-5c-3.4,0.2-7,0.3-10.1-1.1c-3.1-1.4-5.7-4.7-5-8.1
			c1.6-7.5,15.2-5.7,17.9-12.9"/>
	</g>
</g>
<g id="Layer_4" class="st6">
	<text transform="matrix(1 0 0 1 225.7636 480.0609)" class="st7 st8 st9">KOCH’S SKOLE</text>
</g>
<g id="Layer_5">
</g>
<g id="Layer_6">
	<g>
		<g>
			<path class="st10" d="M605,328c2.9-6.3,5.1-12.8,6.7-19.6c0.7-3.1-4.1-4.5-4.8-1.3c-1.5,6.3-3.5,12.5-6.2,18.4
				C599.4,328.4,603.7,330.9,605,328L605,328z"/>
		</g>
	</g>
	<g>
		<g>
			<path class="st10" d="M604.5,241.9c-3.2-5.1-7.3-9.3-12.3-12.6c-2.7-1.8-5.2,2.6-2.5,4.3c4.3,2.8,7.8,6.5,10.5,10.8
				C601.9,247.2,606.2,244.7,604.5,241.9L604.5,241.9z"/>
		</g>
	</g>
	<g>
		<g>
			<path class="st10" d="M250,237.6c-3.5,0-7,0-10.6,0c-3.2,0-3.2,5,0,5c3.5,0,7,0,10.6,0C253.2,242.6,253.2,237.6,250,237.6
				L250,237.6z"/>
		</g>
	</g>
	<g>
		<g>
			<path class="st10" d="M226.8,237.6c-1.6,0-3.3,0-4.9,0c-3.2,0-3.2,5,0,5c1.6,0,3.3,0,4.9,0C230,242.6,230,237.6,226.8,237.6
				L226.8,237.6z"/>
		</g>
	</g>
	<g>
		<g>
			<path class="st10" d="M207,237.9c-4.4-0.8-8.9-1.6-13.3-2.4c-3.1-0.6-4.5,4.2-1.3,4.8c4.4,0.8,8.9,1.6,13.3,2.4
				C208.8,243.3,210.1,238.4,207,237.9L207,237.9z"/>
		</g>
	</g>
	<g>
		<g>
			<path class="st10" d="M183.6,231.7c-2.7-1.8-4.7-4.1-6.1-7c-1.4-2.9-5.7-0.4-4.3,2.5c1.8,3.6,4.5,6.6,7.8,8.8
				C183.8,237.8,186.3,233.5,183.6,231.7L183.6,231.7z"/>
		</g>
	</g>
	<g>
		<g>
			<path class="st10" d="M175.8,217.5c-0.3-4.3-0.2-8.5,0.4-12.7c0.5-3.1-4.4-4.5-4.8-1.3c-0.7,4.7-0.9,9.3-0.6,14.1
				C171.1,220.7,176.1,220.8,175.8,217.5L175.8,217.5z"/>
		</g>
	</g>
	<g>
		<g>
			<path class="st10" d="M183.5,197.7c3.3-2.1,6.6-4.2,9.9-6.3c2.7-1.7,0.2-6.1-2.5-4.3c-3.3,2.1-6.6,4.2-9.9,6.3
				C178.3,195.1,180.8,199.4,183.5,197.7L183.5,197.7z"/>
		</g>
	</g>
	<g>
		<g>
			<path class="st10" d="M207.4,191.8c2.8,3.3,5.6,6.6,8.4,9.9c2.1,2.4,5.6-1.1,3.5-3.5c-2.8-3.3-5.6-6.6-8.4-9.9
				C208.9,185.8,205.3,189.4,207.4,191.8L207.4,191.8z"/>
		</g>
	</g>
	<g>
		<g>
			<path class="st10" d="M225.7,213.3c0,3.3,0,6.6,0,9.9c0,3.2,5,3.2,5,0c0-3.3,0-6.6,0-9.9C230.7,210.1,225.7,210.1,225.7,213.3
				L225.7,213.3z"/>
		</g>
	</g>
	<g>
		<g>
			<path class="st10" d="M228.5,254.9c0,3.8,0,7.5,0,11.3c0,3.2,5,3.2,5,0c0-3.8,0-7.5,0-11.3C233.5,251.7,228.5,251.7,228.5,254.9
				L228.5,254.9z"/>
		</g>
	</g>
	<g>
		<g>
			<path class="st10" d="M234.6,276.1c5.4,3,11.1,5.6,16.8,7.9c3,1.2,4.3-3.7,1.3-4.8c-5.4-2.1-10.6-4.6-15.7-7.4
				C234.3,270.2,231.8,274.6,234.6,276.1L234.6,276.1z"/>
		</g>
	</g>
	<g>
		<g>
			<path class="st10" d="M260.6,284.8c0.9,0,1.9,0,2.8,0c1.3,0,2.6-1.1,2.5-2.5c-0.1-1.4-1.1-2.5-2.5-2.5c-0.9,0-1.9,0-2.8,0
				c-1.3,0-2.6,1.1-2.5,2.5C258.1,283.7,259.2,284.8,260.6,284.8L260.6,284.8z"/>
		</g>
	</g>
	<g>
		<g>
			<path class="st10" d="M260.6,284.8c4.2,0,8.5,0,12.7,0c3.2,0,3.2-5,0-5c-4.2,0-8.5,0-12.7,0C257.4,279.8,257.4,284.8,260.6,284.8
				L260.6,284.8z"/>
		</g>
	</g>
	<g>
		<g>
			<path class="st10" d="M285.3,284.5c4.8,1,9.5,2.5,14,4.5c2.9,1.3,5.5-3,2.5-4.3c-4.9-2.2-10-3.9-15.2-5
				C283.5,279,282.2,283.8,285.3,284.5L285.3,284.5z"/>
		</g>
	</g>
	<g>
		<g>
			<path class="st10" d="M311.3,292.5c3.7,0.1,7.2,0.8,10.6,2c3,1.1,4.3-3.7,1.3-4.8c-3.9-1.4-7.9-2.1-12-2.2
				C308.1,287.4,308.1,292.4,311.3,292.5L311.3,292.5z"/>
		</g>
	</g>
	<g>
		<polygon class="st11" points="302.6,418.3 289.4,486.4 355.8,468.7 326.7,442.2 		"/>
		<polygon class="st10" points="327.9,438.3 302.6,418.3 302.6,418.3 289.6,487 		"/>
		<polygon class="st10" points="332.7,442.1 355.8,468.7 355.8,468.7 289.4,486.4 		"/>
	</g>
	<g>
		<g>
			<path class="st10" d="M538,384.6c-4.7-0.4-9.3-0.8-14-1.2c-3.2-0.3-3.2,4.7,0,5c4.7,0.4,9.3,0.8,14,1.2
				C541.2,389.9,541.2,384.9,538,384.6L538,384.6z"/>
		</g>
	</g>
	<g>
		<g>
			<path class="st10" d="M508.7,382.3c-4.9-0.9-9.8-1.2-14.7-0.7c-3.2,0.3-3.2,5.3,0,5c4.5-0.5,8.9-0.3,13.4,0.5
				C510.5,387.7,511.9,382.9,508.7,382.3L508.7,382.3z"/>
		</g>
	</g>
	<g>
		<g>
			<path class="st10" d="M479,377.5c-7,0.4-14,0.8-21,1.2c-3.2,0.2-3.2,5.2,0,5c7-0.4,14-0.8,21-1.2
				C482.2,382.3,482.2,377.3,479,377.5L479,377.5z"/>
		</g>
	</g>
	<g>
		<g>
			<path class="st10" d="M415.2,380.3c-5.6,1.8-11.3,3.5-16.9,5.3c-3.1,1-1.8,5.8,1.3,4.8c5.6-1.8,11.3-3.5,16.9-5.3
				C419.6,384.1,418.3,379.3,415.2,380.3L415.2,380.3z"/>
		</g>
	</g>
	<g>
		<g>
			<path class="st10" d="M379.7,393.8c-3.6,2-7.3,4.1-10.9,6.1c-2.8,1.6-0.3,5.9,2.5,4.3c3.6-2,7.3-4.1,10.9-6.1
				C385.1,396.6,382.5,392.3,379.7,393.8L379.7,393.8z"/>
		</g>
	</g>
	<g>
		<g>
			<path class="st10" d="M351.3,412.3c-4.8,6.2-10.1,11.8-16.1,16.9c-2.4,2.1,1.1,5.6,3.5,3.5c5.9-5.1,11.3-10.8,16.1-16.9
				C356.8,413.3,353.2,409.7,351.3,412.3L351.3,412.3z"/>
		</g>
	</g>
	<g>
		<g>
			<path class="st10" d="M554,389.5c5.8,0.1,11.3-1.4,16.3-4.3c2.8-1.6,0.3-5.9-2.5-4.3c-4.3,2.5-8.8,3.7-13.8,3.6
				C550.8,384.5,550.8,389.5,554,389.5L554,389.5z"/>
		</g>
	</g>
	<g>
		<g>
			<path class="st10" d="M580.2,380.3c4.1-4.6,8.3-9,12.8-13.3c2.3-2.2-1.2-5.8-3.5-3.5c-4.4,4.2-8.7,8.7-12.8,13.3
				C574.6,379.2,578.1,382.7,580.2,380.3L580.2,380.3z"/>
		</g>
	</g>
	<g>
		<g>
			<path class="st10" d="M600,355.5c1.5-4.3,3.1-8.5,4.6-12.8c1.1-3-3.7-4.3-4.8-1.3c-1.5,4.3-3.1,8.5-4.6,12.8
				C594.1,357.2,598.9,358.5,600,355.5L600,355.5z"/>
		</g>
	</g>
</g>
<g id="Layer_8" class="st6">
	<g class="st7">
		<g>
			<path class="st12" d="M298.9,401.9c5.9,3.1,11.9,6.2,17.8,9.3c2.8,1.5,5.4-2.8,2.5-4.3c-5.9-3.1-11.9-6.2-17.8-9.3
				C298.5,396.1,296,400.4,298.9,401.9L298.9,401.9z"/>
		</g>
	</g>
	<g class="st7">
		<g>
			<path class="st12" d="M330.5,421.9c7,1.9,13.6,4.4,20.1,7.6c2.9,1.4,5.4-2.9,2.5-4.3c-6.8-3.4-13.9-6.1-21.3-8.1
				C328.7,416.2,327.4,421,330.5,421.9L330.5,421.9z"/>
		</g>
	</g>
	<g class="st7">
		<g>
			<path class="st12" d="M373.5,437c6.3,2.2,12.5,4.4,18.8,6.5c3,1.1,4.4-3.8,1.3-4.8c-6.3-2.2-12.5-4.4-18.8-6.5
				C371.8,431.1,370.4,436,373.5,437L373.5,437z"/>
		</g>
	</g>
	<g class="st7">
		<g>
			<path class="st12" d="M425,451.5c7.3,0,14.7,0,22,0c3.2,0,3.2-5,0-5c-7.3,0-14.7,0-22,0C421.8,446.5,421.8,451.5,425,451.5
				L425,451.5z"/>
		</g>
	</g>
	<g class="st7">
		<g>
			<path class="st12" d="M481,451.5c5.7-0.6,11-2,16.3-4.3c2.9-1.3,0.4-5.6-2.5-4.3c-4.4,1.9-9,3.1-13.8,3.6
				C477.8,446.9,477.8,451.9,481,451.5L481,451.5z"/>
		</g>
	</g>
	<g class="st7">
		<g>
			<path class="st12" d="M535.6,437.1c8.7-3.6,17.4-7.2,26.1-10.8c2.9-1.2,1.6-6-1.3-4.8c-8.7,3.6-17.4,7.2-26.1,10.8
				C531.3,433.5,532.6,438.4,535.6,437.1L535.6,437.1z"/>
		</g>
	</g>
	<g class="st7">
		<g>
			<path class="st12" d="M293,392.1c-4.7-5.7-10.3-10.5-16.7-14.2c-2.8-1.6-5.3,2.7-2.5,4.3c6,3.5,11.3,8,15.7,13.4
				C291.5,398.1,295,394.5,293,392.1L293,392.1z"/>
		</g>
	</g>
	<g class="st7">
		<g>
			<path class="st12" d="M257.5,341c0-4,0-8,0-12c0-3.2-5-3.2-5,0c0,4,0,8,0,12C252.5,344.2,257.5,344.2,257.5,341L257.5,341z"/>
		</g>
	</g>
	<g class="st7">
		<g>
			<path class="st12" d="M264.3,296c0.3-3.7,1.4-7.3,3.1-10.6c1.5-2.8-2.8-5.4-4.3-2.5c-2.2,4.1-3.4,8.5-3.8,13.1
				C259,299.2,264,299.2,264.3,296L264.3,296z"/>
		</g>
	</g>
	<g class="st7">
		<g>
			<path class="st12" d="M280.7,271.6c4.2-0.6,8.1-2.8,10.9-6c2.1-2.4-1.4-6-3.5-3.5c-2.3,2.7-5.2,4.2-8.7,4.7
				c-1.3,0.2-2.1,1.9-1.7,3.1C278,271.3,279.4,271.8,280.7,271.6L280.7,271.6z"/>
		</g>
	</g>
	<g class="st7">
		<g>
			<path class="st12" d="M305.3,256.2c3.7-1.6,7.4-3.3,11-4.9c2.9-1.3,0.4-5.6-2.5-4.3c-3.7,1.6-7.4,3.3-11,4.9
				C299.8,253.2,302.4,257.5,305.3,256.2L305.3,256.2z"/>
		</g>
	</g>
	<g class="st7">
		<g>
			<path class="st12" d="M338.4,238.3c7.3,1.1,14.2,0.1,20.9-3.1c2.9-1.4,0.4-5.7-2.5-4.3c-5.4,2.5-11.2,3.4-17.1,2.6
				C336.5,233,335.2,237.8,338.4,238.3L338.4,238.3z"/>
		</g>
	</g>
	<g class="st7">
		<g>
			<path class="st12" d="M379.3,229.4c2.8,0.4,5.4,0,7.9-1.2c1.2-0.6,1.5-2.3,0.9-3.4c-0.7-1.2-2.2-1.5-3.4-0.9
				c-1.2,0.6-2.7,0.9-4.1,0.7c-1.3-0.2-2.7,0.3-3.1,1.7C377.3,227.5,378,229.2,379.3,229.4L379.3,229.4z"/>
		</g>
	</g>
	<g class="st7">
		<g>
			<path class="st12" d="M411.1,216.9c4.6-2.6,9.4-4.4,14.5-5.5c3.1-0.7,1.8-5.5-1.3-4.8c-5.5,1.2-10.8,3.2-15.7,6
				C405.8,214.2,408.3,218.5,411.1,216.9L411.1,216.9z"/>
		</g>
	</g>
	<g class="st7">
		<g>
			<path class="st12" d="M444.7,195.5c5.5-1.4,10.7-3.5,15.7-6.1c2.8-1.5,0.3-5.8-2.5-4.3c-4.6,2.4-9.4,4.3-14.5,5.6
				C440.3,191.5,441.6,196.3,444.7,195.5L444.7,195.5z"/>
		</g>
	</g>
	<g class="st7">
		<g>
			<path class="st12" d="M470.4,179.7c0.9-3.5,2.7-6.5,5.3-8.9c2.4-2.2-1.2-5.7-3.5-3.5c-3.3,3-5.5,6.8-6.6,11.1
				C464.8,181.5,469.6,182.8,470.4,179.7L470.4,179.7z"/>
		</g>
	</g>
	<polygon class="st13" points="710.6,368.3 588.3,422.2 617.9,449.9 617.9,449.9 	"/>
	<polygon class="st13" points="584.2,414.5 705.8,371.2 705.8,371.2 597.3,371.1 	"/>
</g>
</svg>
