<?xml version="1.0" encoding="utf-8"?>
<!-- Generator: Adobe Illustrator 22.0.1, SVG Export Plug-In . SVG Version: 6.00 Build 0)  -->
<svg version="1.1" xmlns="http://www.w3.org/2000/svg" xmlns:xlink="http://www.w3.org/1999/xlink" x="0px" y="0px"
	 viewBox="0 0 841.9 595.3" style="enable-background:new 0 0 841.9 595.3;" xml:space="preserve">
<style type="text/css">
	.st0{fill:#A37D5A;}
	.st1{fill:none;stroke:#634A2D;stroke-width:5;stroke-miterlimit:10;}
	.st2{fill:#52B25F;}
	.st3{fill:#336C30;}
	.st4{fill:#634A2D;}
	.st5{fill:#96C55F;}
	.st6{fill:#369736;}
	.st7{fill:#B0D07C;}
	.st8{fill:#378534;}
	.st9{fill:#5FB240;}
	.st10{fill:#70B744;}
	.st11{fill:#FDCA3E;}
	.st12{fill:none;stroke:#3A317A;stroke-width:4;stroke-miterlimit:10;}
	.st13{fill:#D195C2;}
	.st14{fill:#3C4696;}
	.st15{fill:none;stroke:#FECB40;stroke-width:21;stroke-miterlimit:10;}
	.st16{fill:none;stroke:#FECB40;stroke-width:9;stroke-miterlimit:10;}
	.st17{fill:#7C3C8F;}
	.st18{fill:none;stroke:#FECB40;stroke-width:12;stroke-miterlimit:10;}
	.st19{fill:none;stroke:#3C4696;stroke-width:14;stroke-miterlimit:10;}
	.st20{fill:#FECB40;}
	.st21{fill:#F5DED0;stroke:#B27DB5;stroke-width:15;stroke-miterlimit:10;}
	.st22{fill:#E6223A;}
	.st23{fill:none;stroke:#FECB40;stroke-width:8;stroke-miterlimit:10;}
	.st24{fill:#E52421;}
</style>
<g id="Layer_6">
	<path class="st0" d="M800.3,483.1H38.7c-9.2,0-16.7,7.5-16.7,16.7v0c0,9.2,7.5,16.7,16.7,16.7h761.6c9.2,0,16.7-7.5,16.7-16.7v0
		C817,490.6,809.5,483.1,800.3,483.1z"/>
	<line class="st1" x1="347.5" y1="383.6" x2="368.8" y2="363.1"/>
	<line class="st1" x1="751.9" y1="324.7" x2="779.1" y2="298.5"/>
	<line class="st1" x1="352.3" y1="390.9" x2="332.1" y2="363.8"/>
	<line class="st1" x1="74" y1="319.4" x2="52.5" y2="290.5"/>
	<path class="st2" d="M805,432.8H34c-6.6,0-12,5.4-12,12V485h795v-40.2C817,438.2,811.6,432.8,805,432.8z"/>
	<rect x="22" y="461.6" class="st3" width="795" height="33.4"/>
</g>
<g id="Layer_5">
	<rect x="344.1" y="345.9" class="st4" width="10.2" height="116.4"/>
	<circle class="st5" cx="324.9" cy="321.2" r="19.2"/>
	<ellipse class="st6" cx="349.6" cy="291.3" rx="21.3" ry="25.1"/>
	<ellipse class="st7" cx="380.5" cy="314.6" rx="16.8" ry="25.8"/>
	<ellipse class="st8" cx="362.8" cy="339.9" rx="24.5" ry="27.2"/>
	<ellipse class="st9" cx="339.3" cy="346.2" rx="17.1" ry="20.9"/>
	<ellipse class="st9" cx="354.9" cy="325.5" rx="19.9" ry="23.6"/>
	<g>
		<rect x="741.8" y="271.3" class="st4" width="15.1" height="172.3"/>
		<circle class="st5" cx="713.3" cy="234.8" r="28.4"/>
		<ellipse class="st6" cx="749.9" cy="190.5" rx="31.5" ry="37.2"/>
		<ellipse class="st7" cx="795.6" cy="225" rx="24.9" ry="38.2"/>
		<ellipse class="st8" cx="769.5" cy="262.4" rx="36.3" ry="40.3"/>
		<ellipse class="st9" cx="734.7" cy="271.8" rx="25.3" ry="31"/>
		<ellipse class="st9" cx="757.8" cy="241.1" rx="29.4" ry="34.9"/>
	</g>
	<g>
		<rect x="70.7" y="259.8" class="st4" width="17" height="194.3"/>
		<circle class="st5" cx="38.6" cy="218.7" r="32.1"/>
		<ellipse class="st6" cx="79.8" cy="168.8" rx="35.5" ry="41.9"/>
		<ellipse class="st7" cx="131.4" cy="207.7" rx="28.1" ry="43"/>
		<ellipse class="st8" cx="102" cy="249.8" rx="40.9" ry="45.5"/>
		<ellipse class="st9" cx="62.8" cy="260.4" rx="28.6" ry="34.9"/>
		<ellipse class="st9" cx="88.7" cy="225.8" rx="33.2" ry="39.4"/>
	</g>
	<g>
		<rect x="554.5" y="304.3" class="st4" width="13" height="148.6"/>
		<circle class="st5" cx="530" cy="272.7" r="24.5"/>
		<ellipse class="st6" cx="561.5" cy="234.6" rx="27.1" ry="32.1"/>
		<ellipse class="st7" cx="601" cy="264.3" rx="21.5" ry="32.9"/>
		<ellipse class="st8" cx="578.5" cy="296.6" rx="31.3" ry="34.8"/>
		<ellipse class="st9" cx="548.5" cy="304.7" rx="21.9" ry="26.7"/>
		<ellipse class="st9" cx="568.3" cy="278.2" rx="25.4" ry="30.1"/>
	</g>
	<g>
		<rect x="249.6" y="324.1" class="st4" width="11.8" height="135.4"/>
		<circle class="st10" cx="231.3" cy="289.9" r="22.3"/>
		<ellipse class="st7" cx="256" cy="260.6" rx="24.7" ry="29.2"/>
		<ellipse class="st6" cx="292" cy="287.7" rx="19.6" ry="30"/>
		<ellipse class="st8" cx="271.5" cy="317.1" rx="28.5" ry="31.7"/>
		<ellipse class="st9" cx="244.1" cy="324.4" rx="19.9" ry="24.3"/>
		<ellipse class="st9" cx="265.8" cy="297.9" rx="23.1" ry="27.4"/>
	</g>
	<g>
		<rect x="451.2" y="328.1" class="st4" width="10" height="114.4"/>
		<circle class="st10" cx="435.7" cy="299.2" r="18.9"/>
		<ellipse class="st7" cx="456.6" cy="274.5" rx="20.9" ry="24.7"/>
		<ellipse class="st6" cx="487" cy="297.4" rx="16.5" ry="25.3"/>
		<ellipse class="st8" cx="469.7" cy="322.2" rx="24.1" ry="26.8"/>
		<ellipse class="st9" cx="446.6" cy="328.4" rx="16.8" ry="20.6"/>
		<ellipse class="st9" cx="464.9" cy="306" rx="19.5" ry="23.2"/>
	</g>
</g>
<g id="Layer_1">
	
		<rect x="581.5" y="348.7" transform="matrix(0.8162 0.5777 -0.5777 0.8162 346.9785 -267.7303)" class="st11" width="25.7" height="125.8"/>
	<line class="st12" x1="660.9" y1="190.3" x2="660.9" y2="168.7"/>
	<polygon class="st13" points="710.3,269.9 611.5,269.9 660.9,185.2 660.9,185.2 	"/>
	<path class="st14" d="M685.5,470.3h-50c-5.6,0-10.1-4.5-10.1-10.1v-87.8c0-5.6,4.5-10.1,10.1-10.1h50c5.6,0,10.1,4.5,10.1,10.1
		v87.8C695.5,465.8,691,470.3,685.5,470.3z"/>
	<line class="st15" x1="697" y1="360.4" x2="755.2" y2="466.6"/>
	<line class="st16" x1="709.4" y1="319.3" x2="780.7" y2="449.3"/>
	<path class="st17" d="M699.1,364.9h-74.5c-4.3,0-7.8-3.5-7.8-7.8l0,0c0-4.3,3.5-7.8,7.8-7.8h74.5c4.3,0,7.8,3.5,7.8,7.8l0,0
		C706.9,361.4,703.4,364.9,699.1,364.9z"/>
	<line class="st18" x1="752.3" y1="462.3" x2="783.7" y2="446.9"/>
	<line class="st16" x1="651.9" y1="349.7" x2="651.9" y2="318.3"/>
	<line class="st16" x1="670.9" y1="349.9" x2="670.9" y2="318.5"/>
	<line class="st18" x1="705.2" y1="368.6" x2="723.9" y2="368.6"/>
	<line class="st18" x1="717" y1="397.5" x2="736.6" y2="397.5"/>
	<line class="st18" x1="728.3" y1="421" x2="747.9" y2="421"/>
	<line class="st18" x1="738.9" y1="441.1" x2="758.5" y2="441.1"/>
	<line class="st16" x1="628.8" y1="320.7" x2="710.9" y2="320.7"/>
	<line class="st19" x1="691.5" y1="351.1" x2="691.5" y2="262.2"/>
	<line class="st19" x1="631.4" y1="352" x2="631.4" y2="263.2"/>
	<rect x="609.5" y="257.8" class="st17" width="102" height="18.8"/>
	<rect x="609.5" y="245.9" class="st17" width="19.4" height="11.9"/>
	<rect x="636.7" y="246" class="st17" width="19.4" height="11.9"/>
	<rect x="664.3" y="245.9" class="st17" width="19.4" height="11.9"/>
	<rect x="692" y="245.9" class="st17" width="19.4" height="11.9"/>
	<rect x="522.7" y="452.8" class="st20" width="46" height="17.5"/>
	<circle class="st21" cx="659.7" cy="416.1" r="18.6"/>
	<polygon class="st22" points="642.6,172.2 662.7,178.5 662.7,165.9 642.6,172.2 	"/>
	<g>
		<rect x="191" y="314.9" class="st23" width="36.3" height="128.6"/>
		<line class="st19" x1="194.7" y1="439.2" x2="224.8" y2="439.2"/>
		
			<rect x="83.1" y="304.9" transform="matrix(0.9533 0.302 -0.302 0.9533 123.1212 -8.1229)" class="st24" width="9.4" height="178.4"/>
		
			<rect x="255.3" y="304.9" transform="matrix(0.9699 -0.2435 0.2435 0.9699 -88.1474 75.1892)" class="st24" width="9.4" height="178.4"/>
		<rect x="125.4" y="314.3" class="st23" width="36.3" height="128.6"/>
		
			<rect x="168.2" y="245.9" transform="matrix(6.123234e-17 -1 1 6.123234e-17 -138.8991 487.2569)" class="st24" width="12" height="134.4"/>
		<line class="st19" x1="129.2" y1="438.6" x2="159.3" y2="438.6"/>
	</g>
	<rect x="286.3" y="426" class="st17" width="255.8" height="9.3"/>
	<path class="st13" d="M452.4,467.3c-1.9-19.4-18.3-34.6-38.2-34.6s-36.3,15.2-38.2,34.6H452.4z"/>
	<circle class="st11" cx="414.1" cy="430.5" r="10.1"/>
	<rect x="287.1" y="419.1" class="st24" width="41.2" height="6.9"/>
	<rect x="287.1" y="400.5" class="st11" width="5.9" height="18.7"/>
	<rect x="340.4" y="407" class="st11" width="5.9" height="18.7"/>
	<rect x="483.7" y="407.7" class="st11" width="5.9" height="18.7"/>
	
		<rect x="500" y="419.1" transform="matrix(-1 -4.489310e-11 4.489310e-11 -1 1041.2115 845.1603)" class="st24" width="41.2" height="6.9"/>
	
		<rect x="535.3" y="400.5" transform="matrix(-1 -4.430202e-11 4.430202e-11 -1 1076.5475 819.579)" class="st11" width="5.9" height="18.7"/>
</g>
</svg>
